<?xml version="1.0" encoding="UTF-8"?>
<!DOCTYPE svg PUBLIC "-//W3C//DTD SVG 1.1//EN" "http://www.w3.org/Graphics/SVG/1.1/DTD/svg11.dtd">
<svg xmlns="http://www.w3.org/2000/svg" version="1.1" width="442px" height="200px" style="shape-rendering:geometricPrecision; text-rendering:geometricPrecision; image-rendering:optimizeQuality; fill-rule:evenodd; clip-rule:evenodd" xmlns:xlink="http://www.w3.org/1999/xlink">
<g><path style="opacity:0.926" fill="#0b9444" d="M -0.5,-0.5 C 38.5,-0.5 77.5,-0.5 116.5,-0.5C 116.5,66.1667 116.5,132.833 116.5,199.5C 77.5,199.5 38.5,199.5 -0.5,199.5C -0.5,132.833 -0.5,66.1667 -0.5,-0.5 Z M 28.5,25.5 C 30.3388,26.7525 32.1722,26.7525 34,25.5C 34.3333,36.8333 34.6667,48.1667 35,59.5C 36.5637,63.7884 39.3971,66.955 43.5,69C 52.8333,69.3333 62.1667,69.6667 71.5,70C 84.5803,70.1184 94.0803,75.9518 100,87.5C 103.366,99.2511 104.366,111.251 103,123.5C 98.0015,134.241 89.5015,139.574 77.5,139.5C 76.6675,128.181 76.1675,116.848 76,105.5C 74.802,102.274 72.9686,99.4411 70.5,97C 57.9101,95.8136 45.2434,94.9802 32.5,94.5C 22.1807,91.6379 15.0141,85.6379 11,76.5C 7.7244,65.7559 6.7244,54.7559 8,43.5C 8.62403,36.9032 11.7907,32.0699 17.5,29C 21.433,28.2517 25.0997,27.085 28.5,25.5 Z M 100.5,25.5 C 101.5,25.5 102.5,25.5 103.5,25.5C 103.667,42.8365 103.5,60.1699 103,77.5C 99.5172,73.4189 95.6839,69.5856 91.5,66C 86.5682,64.7269 81.7349,63.2269 77,61.5C 76.3333,54.1667 76.3333,46.8333 77,39.5C 79.1145,35.052 82.2811,31.552 86.5,29C 91.3411,28.0047 96.0078,26.838 100.5,25.5 Z M 7.5,86.5 C 14.1708,95.6722 23.1708,101.005 34.5,102.5C 34.6664,110.174 34.4997,117.841 34,125.5C 28.8644,135.948 20.0311,140.615 7.5,139.5C 7.5,121.833 7.5,104.167 7.5,86.5 Z"/></g>
<g><path style="opacity:0.86" fill="#0b9443" d="M 264.5,90.5 C 273.506,90.3336 282.506,90.5002 291.5,91C 298.844,95.5364 301.344,102.036 299,110.5C 297.5,114.667 294.667,117.5 290.5,119C 284.843,119.499 279.176,119.666 273.5,119.5C 273.861,125.593 273.361,131.593 272,137.5C 269.263,138.61 266.429,138.777 263.5,138C 262.874,137.25 262.374,136.416 262,135.5C 261.333,121.833 261.333,108.167 262,94.5C 262.662,93.0161 263.496,91.6828 264.5,90.5 Z M 272.5,99.5 C 277.144,98.0935 281.811,98.4268 286.5,100.5C 290.123,105.978 288.79,109.478 282.5,111C 279.167,111.667 275.833,111.667 272.5,111C 273.821,107.066 273.821,103.233 272.5,99.5 Z"/></g>
<g><path style="opacity:0.84" fill="#0b9443" d="M 232.5,101.5 C 241.034,100.172 247.867,102.838 253,109.5C 254.434,113.406 254.767,117.406 254,121.5C 253.25,122.126 252.416,122.626 251.5,123C 244.508,123.5 237.508,123.666 230.5,123.5C 231.454,131.648 235.788,134.148 243.5,131C 245.98,127.424 249.313,126.09 253.5,127C 254.598,132.613 252.265,136.28 246.5,138C 230.399,142.636 221.399,136.803 219.5,120.5C 219.647,111.18 223.98,104.847 232.5,101.5 Z M 235.5,109.5 C 241.655,108.752 244.655,111.418 244.5,117.5C 239.833,117.5 235.167,117.5 230.5,117.5C 230.536,113.8 232.203,111.133 235.5,109.5 Z"/></g>
<g><path style="opacity:0.838" fill="#0b9443" d="M 314.5,101.5 C 324.25,100.291 331.417,103.958 336,112.5C 336.667,115.167 336.667,117.833 336,120.5C 335.097,121.701 333.931,122.535 332.5,123C 325.476,123.169 318.476,123.669 311.5,124.5C 316.105,134.183 322.105,135.017 329.5,127C 337.729,126.837 338.729,129.837 332.5,136C 310.455,144.088 300.288,136.588 302,113.5C 304.208,107.337 308.375,103.337 314.5,101.5 Z M 316.5,109.5 C 322.54,108.88 325.874,111.547 326.5,117.5C 321.489,117.666 316.489,117.499 311.5,117C 312.324,113.827 313.991,111.327 316.5,109.5 Z"/></g>
<g><path style="opacity:0.824" fill="#0b9443" d="M 388.5,101.5 C 392.846,101.334 397.179,101.501 401.5,102C 408.038,103.545 411.205,107.711 411,114.5C 411.285,121.187 411.785,127.853 412.5,134.5C 412.43,135.772 412.097,136.938 411.5,138C 407.611,139.14 404.278,138.307 401.5,135.5C 400.088,136.806 398.421,137.64 396.5,138C 391.833,138.667 387.167,138.667 382.5,138C 376.831,134.488 375.331,129.654 378,123.5C 379.543,121.622 381.376,120.122 383.5,119C 387.869,118.158 392.203,117.158 396.5,116C 400.754,115.338 401.42,113.505 398.5,110.5C 393.042,108.555 388.708,110.055 385.5,115C 378.565,116.437 376.732,113.937 380,107.5C 382.364,104.682 385.197,102.682 388.5,101.5 Z M 397.5,122.5 C 398.5,122.5 399.5,122.5 400.5,122.5C 400.179,131.32 396.012,133.986 388,130.5C 387.333,129.167 387.333,127.833 388,126.5C 390.968,124.489 394.134,123.156 397.5,122.5 Z"/></g>
<g><path style="opacity:0.856" fill="#0b9443" d="M 132.5,102.5 C 151.464,101.964 158.964,110.964 155,129.5C 153.167,133.333 150.333,136.167 146.5,138C 140.833,138.667 135.167,138.667 129.5,138C 126,135.833 123.167,133 121,129.5C 117.025,116.803 120.859,107.803 132.5,102.5 Z M 134.5,110.5 C 138.909,109.618 142.409,110.952 145,114.5C 145.667,118.833 145.667,123.167 145,127.5C 136.462,134.339 131.295,132.172 129.5,121C 129.98,116.875 131.647,113.375 134.5,110.5 Z"/></g>
<g><path style="opacity:0.855" fill="#0b9443" d="M 164.5,102.5 C 168.182,101.725 170.682,103.059 172,106.5C 178.667,101.167 185.333,101.167 192,106.5C 197.347,102.387 203.181,101.554 209.5,104C 211.81,105.637 213.31,107.804 214,110.5C 214.805,119.548 214.639,128.548 213.5,137.5C 210.059,139.006 206.892,138.673 204,136.5C 203.667,128.167 203.333,119.833 203,111.5C 200.084,109.987 197.418,110.32 195,112.5C 193.836,120.782 193.169,129.116 193,137.5C 190.263,138.61 187.429,138.777 184.5,138C 183.809,136.933 183.309,135.766 183,134.5C 182.667,126.833 182.333,119.167 182,111.5C 179.084,109.987 176.418,110.32 174,112.5C 172.836,120.782 172.169,129.116 172,137.5C 169.263,138.61 166.429,138.777 163.5,138C 162.347,126.91 162.18,115.743 163,104.5C 163.717,103.956 164.217,103.289 164.5,102.5 Z"/></g>
<g><path style="opacity:0.82" fill="#0b9443" d="M 350.5,102.5 C 356.402,101.962 362.068,102.795 367.5,105C 370.491,107.141 371.658,109.975 371,113.5C 370.044,114.894 368.711,115.561 367,115.5C 363.937,114.119 361.104,112.286 358.5,110C 355.637,109.035 353.304,109.702 351.5,112C 351.82,113.653 352.82,114.653 354.5,115C 358.787,116.488 363.12,117.822 367.5,119C 375.618,125.754 375.284,132.087 366.5,138C 360.167,138.667 353.833,138.667 347.5,138C 341.658,135.439 339.992,131.439 342.5,126C 346.873,125.014 349.873,126.681 351.5,131C 356.181,133.554 360.181,132.887 363.5,129C 362.833,127.667 361.833,126.667 360.5,126C 353.339,125.18 347.172,122.346 342,117.5C 340.204,109.749 343.037,104.749 350.5,102.5 Z"/></g>
<g><path style="opacity:1" fill="#e5f1e8" d="M 69.5,150.5 C 70.8333,150.5 72.1667,150.5 73.5,150.5C 73.3367,152.857 73.5034,155.19 74,157.5C 77.7258,155.646 80.3924,156.646 82,160.5C 82.4983,163.817 82.665,167.15 82.5,170.5C 80.8333,170.5 79.1667,170.5 77.5,170.5C 77.5,166.833 77.5,163.167 77.5,159.5C 76.1779,159.33 75.0113,159.663 74,160.5C 73.5017,163.817 73.335,167.15 73.5,170.5C 72.1667,170.5 70.8333,170.5 69.5,170.5C 69.5,163.833 69.5,157.167 69.5,150.5 Z"/></g>
<g><path style="opacity:0.933" fill="#0b9443" d="M 123.5,150.5 C 124.833,150.5 126.167,150.5 127.5,150.5C 127.5,151.5 127.5,152.5 127.5,153.5C 126.167,153.5 124.833,153.5 123.5,153.5C 123.5,152.5 123.5,151.5 123.5,150.5 Z"/></g>
<g><path style="opacity:0.779" fill="#0b9443" d="M 149.5,150.5 C 151.167,150.5 152.833,150.5 154.5,150.5C 154.5,152.5 154.5,154.5 154.5,156.5C 161.745,155.963 164.578,159.296 163,166.5C 162.535,167.931 161.701,169.097 160.5,170C 156.848,170.499 153.182,170.665 149.5,170.5C 149.5,163.833 149.5,157.167 149.5,150.5 Z M 155.5,159.5 C 157.89,159.685 158.89,161.018 158.5,163.5C 157.167,168.833 155.833,168.833 154.5,163.5C 154.623,162.075 154.957,160.742 155.5,159.5 Z"/></g>
<g><path style="opacity:0.771" fill="#0b9443" d="M 139.5,152.5 C 140.552,152.351 141.552,152.517 142.5,153C 141.313,154.019 140.313,155.186 139.5,156.5C 140.95,157.85 141.617,159.516 141.5,161.5C 139.173,161.753 137.173,161.086 135.5,159.5C 135.167,159.833 134.833,160.167 134.5,160.5C 136.113,162.088 138.113,163.088 140.5,163.5C 141.938,165.998 141.604,168.164 139.5,170C 136.833,170.667 134.167,170.667 131.5,170C 129.963,168.89 129.297,167.39 129.5,165.5C 131.954,165.321 134.121,165.987 136,167.5C 136.5,167.167 137,166.833 137.5,166.5C 135.631,165.376 133.631,164.543 131.5,164C 129.473,162.604 129.14,160.938 130.5,159C 129.552,158.517 128.552,158.351 127.5,158.5C 127.5,162.5 127.5,166.5 127.5,170.5C 126.167,170.5 124.833,170.5 123.5,170.5C 123.5,165.833 123.5,161.167 123.5,156.5C 128.461,157.352 133.461,157.352 138.5,156.5C 138.433,155.041 138.766,153.708 139.5,152.5 Z"/></g>
<g><path style="opacity:0.862" fill="#0b9443" d="M 179.5,152.5 C 180.833,152.5 182.167,152.5 183.5,152.5C 183.5,153.833 183.5,155.167 183.5,156.5C 185.167,156.5 186.833,156.5 188.5,156.5C 188.5,155.167 188.5,153.833 188.5,152.5C 189.833,152.5 191.167,152.5 192.5,152.5C 192.5,153.833 192.5,155.167 192.5,156.5C 193.5,156.5 194.5,156.5 195.5,156.5C 195.5,157.5 195.5,158.5 195.5,159.5C 194.5,159.5 193.5,159.5 192.5,159.5C 192.337,161.857 192.503,164.19 193,166.5C 194.706,167.308 195.539,168.641 195.5,170.5C 193.208,170.756 191.041,170.423 189,169.5C 188.502,166.183 188.335,162.85 188.5,159.5C 186.833,159.5 185.167,159.5 183.5,159.5C 183.337,161.857 183.503,164.19 184,166.5C 185.706,167.308 186.539,168.641 186.5,170.5C 184.208,170.756 182.041,170.423 180,169.5C 179.928,165.469 179.094,161.636 177.5,158C 178.885,156.403 179.551,154.57 179.5,152.5 Z"/></g>
<g><path style="opacity:1" fill="#e3f0e7" d="M 13.5,156.5 C 14.4972,156.47 15.1639,156.97 15.5,158C 14.4535,159.68 13.7868,161.514 13.5,163.5C 14.0211,165.924 14.6877,168.257 15.5,170.5C 13.5328,170.739 11.6995,170.406 10,169.5C 9.19454,165.558 8.02788,161.725 6.5,158C 6.83611,156.97 7.50278,156.47 8.5,156.5C 9.40397,155.791 9.73731,154.791 9.5,153.5C 10.5,153.5 11.5,153.5 12.5,153.5C 12.2627,154.791 12.596,155.791 13.5,156.5 Z"/></g>
<g><path style="opacity:1" fill="#87bf99" d="M 13.5,156.5 C 12.596,155.791 12.2627,154.791 12.5,153.5C 11.5,153.5 10.5,153.5 9.5,153.5C 9.73731,154.791 9.40397,155.791 8.5,156.5C 8.5,155.167 8.5,153.833 8.5,152.5C 10.1667,152.5 11.8333,152.5 13.5,152.5C 13.5,153.833 13.5,155.167 13.5,156.5 Z"/></g>
<g><path style="opacity:1" fill="#e3f0e7" d="M 65.5,156.5 C 66.4972,156.47 67.1639,156.97 67.5,158C 66.4535,159.68 65.7868,161.514 65.5,163.5C 66.0211,165.924 66.6877,168.257 67.5,170.5C 65.5328,170.739 63.6995,170.406 62,169.5C 61.3278,165.779 60.1611,162.445 58.5,159.5C 58.2852,157.821 58.9519,156.821 60.5,156.5C 61.404,155.791 61.7373,154.791 61.5,153.5C 62.5,153.5 63.5,153.5 64.5,153.5C 64.2627,154.791 64.596,155.791 65.5,156.5 Z"/></g>
<g><path style="opacity:1" fill="#87bf99" d="M 65.5,156.5 C 64.596,155.791 64.2627,154.791 64.5,153.5C 63.5,153.5 62.5,153.5 61.5,153.5C 61.7373,154.791 61.404,155.791 60.5,156.5C 60.5,155.167 60.5,153.833 60.5,152.5C 62.1667,152.5 63.8333,152.5 65.5,152.5C 65.5,153.833 65.5,155.167 65.5,156.5 Z"/></g>
<g><path style="opacity:1" fill="#e9f3ec" d="M 19.5,156.5 C 27.8285,155.664 30.9952,159.33 29,167.5C 25.6101,171.032 21.9434,171.366 18,168.5C 15.7844,164.132 16.2844,160.132 19.5,156.5 Z"/></g>
<g><path style="opacity:1" fill="#eef5f0" d="M 34.5,156.5 C 37.9355,157.368 41.2688,157.368 44.5,156.5C 44.666,161.844 44.4994,167.177 44,172.5C 41.1034,175.231 37.6034,176.231 33.5,175.5C 33.5,174.5 33.5,173.5 33.5,172.5C 35.5273,172.662 37.5273,172.495 39.5,172C 39.9574,171.586 40.2907,171.086 40.5,170.5C 33.5106,171.322 30.6773,167.989 32,160.5C 32.6622,159.016 33.4955,157.683 34.5,156.5 Z"/></g>
<g><path style="opacity:1" fill="#eef5f0" d="M 58.5,159.5 C 58.5,161.167 58.5,162.833 58.5,164.5C 55.7531,164.187 53.0865,164.52 50.5,165.5C 52.0993,167.729 54.0993,168.062 56.5,166.5C 57.5,166.833 58.1667,167.5 58.5,168.5C 49.3053,172.477 45.472,169.477 47,159.5C 50.8306,155.555 54.6639,155.555 58.5,159.5 Z"/></g>
<g><path style="opacity:1" fill="#e5f1e8" d="M 86.5,156.5 C 93.1284,155.133 96.4617,157.8 96.5,164.5C 93.4816,164.335 90.4816,164.502 87.5,165C 89.3353,167.629 91.6686,168.129 94.5,166.5C 95.731,167.651 95.731,168.817 94.5,170C 88.0195,172.27 84.3528,170.103 83.5,163.5C 83.6946,160.782 84.6946,158.449 86.5,156.5 Z"/></g>
<g><path style="opacity:1" fill="#edf4ef" d="M 97.5,156.5 C 100.272,157.371 102.938,157.371 105.5,156.5C 105.5,157.5 105.5,158.5 105.5,159.5C 104.178,159.33 103.011,159.663 102,160.5C 101.502,163.817 101.335,167.15 101.5,170.5C 100.167,170.5 98.8333,170.5 97.5,170.5C 97.5,165.833 97.5,161.167 97.5,156.5 Z"/></g>
<g><path style="opacity:0.817" fill="#0b9443" d="M 167.5,156.5 C 174.128,155.133 177.462,157.8 177.5,164.5C 174.753,164.187 172.086,164.52 169.5,165.5C 170.896,167.791 172.729,168.125 175,166.5C 176.169,167.009 177.002,167.842 177.5,169C 167.766,172.922 163.6,169.756 165,159.5C 166.045,158.627 166.878,157.627 167.5,156.5 Z M 170.5,159.5 C 171.376,159.369 172.043,159.702 172.5,160.5C 170.192,161.873 169.525,161.54 170.5,159.5 Z"/></g>
<g><path style="opacity:0.821" fill="#0b9443" d="M 199.5,156.5 C 206.33,155 209.33,157.667 208.5,164.5C 205.813,164.336 203.146,164.503 200.5,165C 201.09,166.299 202.09,167.132 203.5,167.5C 204.864,166.957 206.197,166.79 207.5,167C 208.833,168 208.833,169 207.5,170C 197.294,172.131 193.794,168.298 197,158.5C 197.995,157.934 198.828,157.267 199.5,156.5 Z M 201.5,159.5 C 202.756,159.461 203.756,159.961 204.5,161C 203.167,161.667 201.833,161.667 200.5,161C 201.056,160.617 201.389,160.117 201.5,159.5 Z"/></g>
<g><path style="opacity:0.785" fill="#0b9443" d="M 210.5,156.5 C 213.167,156.5 215.833,156.5 218.5,156.5C 218.5,157.5 218.5,158.5 218.5,159.5C 217.5,159.5 216.5,159.5 215.5,159.5C 215.5,163.167 215.5,166.833 215.5,170.5C 213.833,170.5 212.167,170.5 210.5,170.5C 210.5,165.833 210.5,161.167 210.5,156.5 Z"/></g>
<g><path style="opacity:1" fill="#20974b" d="M 21.5,159.5 C 22.8221,159.33 23.9887,159.663 25,160.5C 25.6667,162.5 25.6667,164.5 25,166.5C 21.9658,167.748 20.4658,166.581 20.5,163C 20.6483,161.744 20.9816,160.577 21.5,159.5 Z"/></g>
<g><path style="opacity:1" fill="#26984e" d="M 36.5,159.5 C 37.8221,159.33 38.9887,159.663 40,160.5C 40.6667,162.5 40.6667,164.5 40,166.5C 38.6667,167.833 37.3333,167.833 36,166.5C 35.2967,164.071 35.4634,161.738 36.5,159.5 Z"/></g>
<g><path style="opacity:1" fill="#26984d" d="M 51.5,159.5 C 52.675,159.281 53.675,159.614 54.5,160.5C 53.277,161.614 51.9437,161.781 50.5,161C 51.056,160.617 51.3893,160.117 51.5,159.5 Z"/></g>
<g><path style="opacity:1" fill="#1a9649" d="M 88.5,159.5 C 89.675,159.281 90.675,159.614 91.5,160.5C 89.9483,161.798 88.9483,161.465 88.5,159.5 Z"/></g>
<g><path style="opacity:0.031" fill="#0b9443" d="M 120.5,172.5 C 121.833,172.5 123.167,172.5 124.5,172.5C 124.5,173.833 124.5,175.167 124.5,176.5C 121.5,176.833 120.167,175.5 120.5,172.5 Z"/></g>
<g><path style="opacity:0.019" fill="#0b9443" d="M 124.5,185.5 C 126.296,186.793 127.963,188.293 129.5,190C 127.522,192.015 125.688,191.848 124,189.5C 123.805,188.181 123.972,186.847 124.5,185.5 Z"/></g>
</svg>
