<?xml version="1.0" encoding="UTF-8"?>
<!DOCTYPE svg PUBLIC "-//W3C//DTD SVG 1.1//EN" "http://www.w3.org/Graphics/SVG/1.1/DTD/svg11.dtd">
<svg xmlns="http://www.w3.org/2000/svg" version="1.1" width="514px" height="233px" style="shape-rendering:geometricPrecision; text-rendering:geometricPrecision; image-rendering:optimizeQuality; fill-rule:evenodd; clip-rule:evenodd" xmlns:xlink="http://www.w3.org/1999/xlink">
<g><path style="opacity:0.998" fill="#0d9343" d="M 21.5,41.5 C 61.5,41.5 101.5,41.5 141.5,41.5C 141.5,91.1667 141.5,140.833 141.5,190.5C 101.5,190.5 61.5,190.5 21.5,190.5C 21.5,140.833 21.5,91.1667 21.5,41.5 Z"/></g>
<g><path style="opacity:1" fill="#fcfdfc" d="M 70.5,63.5 C 74.1667,63.5 77.8333,63.5 81.5,63.5C 81.3335,72.8393 81.5002,82.1726 82,91.5C 82.8333,92.3333 83.6667,93.1667 84.5,94C 94.5,94.3333 104.5,94.6667 114.5,95C 122.477,96.9752 127.977,101.808 131,109.5C 131.667,119.167 131.667,128.833 131,138.5C 129.402,143.099 126.235,145.932 121.5,147C 118.183,147.498 114.85,147.665 111.5,147.5C 111.666,137.828 111.5,128.161 111,118.5C 110.167,117.667 109.333,116.833 108.5,116C 97.5,115.667 86.5,115.333 75.5,115C 68.2417,112.076 63.4084,106.909 61,99.5C 60.3333,90.8333 60.3333,82.1667 61,73.5C 63.0223,68.98 66.189,65.6467 70.5,63.5 Z"/></g>
<g><path style="opacity:1" fill="#fcfdfd" d="M 131.5,64.5 C 131.828,76.6783 131.495,88.6783 130.5,100.5C 126.352,93.2569 120.019,89.9236 111.5,90.5C 111.334,84.4908 111.501,78.4908 112,72.5C 113.36,69.2648 115.527,66.7648 118.5,65C 122.821,64.501 127.154,64.3343 131.5,64.5 Z"/></g>
<g><path style="opacity:1" fill="#50ac77" d="M 131.5,64.5 C 132.825,76.673 132.825,89.0063 131.5,101.5C 130.893,101.376 130.56,101.043 130.5,100.5C 131.495,88.6783 131.828,76.6783 131.5,64.5 Z"/></g>
<g><path style="opacity:0.967" fill="#0b9443" d="M 317.5,87.5 C 328.172,87.3335 338.839,87.5002 349.5,88C 361.411,91.9822 365.911,100.149 363,112.5C 360.164,118.837 355.331,122.67 348.5,124C 343.845,124.499 339.179,124.666 334.5,124.5C 334.5,128.5 334.5,132.5 334.5,136.5C 328.833,136.5 323.167,136.5 317.5,136.5C 317.5,120.167 317.5,103.833 317.5,87.5 Z M 334.5,100.5 C 338.839,99.8461 342.673,100.846 346,103.5C 346.896,106.025 346.396,108.192 344.5,110C 341.274,111.199 337.941,111.699 334.5,111.5C 334.5,107.833 334.5,104.167 334.5,100.5 Z"/></g>
<g><path style="opacity:0.945" fill="#0b9443" d="M 163.5,96.5 C 175.192,94.2233 184.358,97.89 191,107.5C 195.568,120.141 192.068,129.641 180.5,136C 167.819,140.438 157.652,137.271 150,126.5C 145.182,112.071 149.682,102.071 163.5,96.5 Z M 168.5,109.5 C 173.529,109.36 176.196,111.86 176.5,117C 175.651,123.92 172.318,125.754 166.5,122.5C 163.801,117.611 164.468,113.277 168.5,109.5 Z"/></g>
<g><path style="opacity:0.979" fill="#0b9443" d="M 218.5,96.5 C 222.514,96.3345 226.514,96.5012 230.5,97C 232.679,98.2567 234.679,99.7567 236.5,101.5C 244.153,95.4734 252.153,94.9734 260.5,100C 261.794,102.087 262.961,104.254 264,106.5C 264.5,116.494 264.666,126.494 264.5,136.5C 259.167,136.5 253.833,136.5 248.5,136.5C 248.901,128.415 248.401,120.415 247,112.5C 243.237,109.539 240.904,110.539 240,115.5C 239.5,122.492 239.334,129.492 239.5,136.5C 234.167,136.5 228.833,136.5 223.5,136.5C 223.901,128.415 223.401,120.415 222,112.5C 217.905,109.363 215.238,110.363 214,115.5C 213.5,122.492 213.334,129.492 213.5,136.5C 208.167,136.5 202.833,136.5 197.5,136.5C 197.5,123.5 197.5,110.5 197.5,97.5C 203.303,96.9132 208.803,97.5798 214,99.5C 215.409,98.2189 216.909,97.2189 218.5,96.5 Z"/></g>
<g><path style="opacity:0.937" fill="#0b9443" d="M 283.5,96.5 C 302.899,93.8346 312.233,102.168 311.5,121.5C 302.827,121.334 294.16,121.5 285.5,122C 287.297,124.232 289.63,125.398 292.5,125.5C 295.588,124.601 298.588,123.767 301.5,123C 304.219,125.382 306.553,128.049 308.5,131C 307.339,133.593 305.339,135.259 302.5,136C 293.573,138.427 284.907,137.761 276.5,134C 269.007,127.852 266.507,120.018 269,110.5C 271.774,103.557 276.607,98.8903 283.5,96.5 Z M 288.5,107.5 C 292.349,107.502 295.015,109.335 296.5,113C 292.5,113.667 288.5,113.667 284.5,113C 285.665,111.008 286.998,109.175 288.5,107.5 Z"/></g>
<g><path style="opacity:0.937" fill="#0b9443" d="M 381.5,96.5 C 400.899,93.8346 410.233,102.168 409.5,121.5C 400.827,121.334 392.16,121.5 383.5,122C 385.297,124.232 387.63,125.398 390.5,125.5C 393.588,124.601 396.588,123.767 399.5,123C 402.219,125.382 404.553,128.049 406.5,131C 405.339,133.593 403.339,135.259 400.5,136C 391.573,138.427 382.907,137.761 374.5,134C 367.007,127.852 364.507,120.018 367,110.5C 369.774,103.557 374.607,98.8903 381.5,96.5 Z M 386.5,107.5 C 390.349,107.502 393.015,109.335 394.5,113C 390.5,113.667 386.5,113.667 382.5,113C 383.665,111.008 384.998,109.175 386.5,107.5 Z"/></g>
<g><path style="opacity:0.925" fill="#0b9443" d="M 425.5,96.5 C 431.176,96.3339 436.843,96.5006 442.5,97C 445.032,97.6189 447.365,98.6189 449.5,100C 447.856,103.937 446.023,107.77 444,111.5C 439.162,107.496 433.995,106.829 428.5,109.5C 433.025,111.079 437.691,112.246 442.5,113C 450.433,116.588 452.6,122.422 449,130.5C 447.062,133.106 444.562,134.939 441.5,136C 434.916,137.544 428.249,137.877 421.5,137C 418.202,136.513 415.202,135.347 412.5,133.5C 413.909,129.684 415.576,126.017 417.5,122.5C 423.21,126.013 429.21,126.847 435.5,125C 430.287,123.459 424.953,122.126 419.5,121C 417,119.833 415.167,118 414,115.5C 411.904,105.454 415.737,99.1207 425.5,96.5 Z"/></g>
<g><path style="opacity:0.944" fill="#0b9443" d="M 464.5,96.5 C 469.844,96.334 475.177,96.5006 480.5,97C 487.333,98.5 491.5,102.667 493,109.5C 493.5,118.494 493.666,127.494 493.5,136.5C 488.5,136.5 483.5,136.5 478.5,136.5C 478.649,135.448 478.483,134.448 478,133.5C 476.786,135.049 475.286,136.215 473.5,137C 462.402,140.164 455.402,136.33 452.5,125.5C 453.142,119.357 456.475,115.523 462.5,114C 467.202,113.828 471.868,113.328 476.5,112.5C 475.061,110.028 472.894,108.695 470,108.5C 466.345,109.051 463.011,110.385 460,112.5C 458.022,108.712 456.189,104.879 454.5,101C 457.703,98.9971 461.036,97.4971 464.5,96.5 Z M 470.5,121.5 C 479.118,121.292 479.618,123.292 472,127.5C 468.168,126.198 467.668,124.198 470.5,121.5 Z"/></g>
<g><path style="opacity:1" fill="#fafdfb" d="M 60.5,108.5 C 63.2956,111.797 66.2956,114.964 69.5,118C 73.253,119.989 77.253,120.822 81.5,120.5C 81.9286,127.947 81.4286,135.281 80,142.5C 78.0478,144.894 75.5478,146.394 72.5,147C 68.5138,147.499 64.5138,147.666 60.5,147.5C 60.5,134.5 60.5,121.5 60.5,108.5 Z"/></g>
<g><path style="opacity:0.693" fill="#0b9443" d="M 330.5,142.5 C 332.167,142.5 333.833,142.5 335.5,142.5C 336.169,146.676 334.669,148.009 331,146.5C 330.51,145.207 330.343,143.873 330.5,142.5 Z"/></g>
<g><path style="opacity:0.938" fill="#0b9443" d="M 279.5,143.5 C 280.833,143.5 282.167,143.5 283.5,143.5C 283.338,145.527 283.505,147.527 284,149.5C 287.24,147.964 290.24,148.297 293,150.5C 293.499,154.486 293.666,158.486 293.5,162.5C 292.167,162.5 290.833,162.5 289.5,162.5C 289.664,159.813 289.497,157.146 289,154.5C 287.451,151.997 285.784,151.997 284,154.5C 283.503,157.146 283.336,159.813 283.5,162.5C 282.167,162.5 280.833,162.5 279.5,162.5C 279.5,156.167 279.5,149.833 279.5,143.5 Z"/></g>
<g><path style="opacity:0.885" fill="#0b9443" d="M 358.5,143.5 C 359.833,143.5 361.167,143.5 362.5,143.5C 362.5,145.167 362.5,146.833 362.5,148.5C 373.818,147.99 376.485,152.49 370.5,162C 366.514,162.499 362.514,162.666 358.5,162.5C 358.5,156.167 358.5,149.833 358.5,143.5 Z M 363.5,152.5 C 367.945,151.873 369.612,153.54 368.5,157.5C 363.484,159.125 361.817,157.458 363.5,152.5 Z"/></g>
<g><path style="opacity:0.898" fill="#0b9443" d="M 203.5,144.5 C 208.833,144.5 214.167,144.5 219.5,144.5C 219.5,145.833 219.5,147.167 219.5,148.5C 217.5,148.5 215.5,148.5 213.5,148.5C 213.5,153.167 213.5,157.833 213.5,162.5C 212.167,162.5 210.833,162.5 209.5,162.5C 209.5,157.833 209.5,153.167 209.5,148.5C 207.5,148.5 205.5,148.5 203.5,148.5C 203.5,147.167 203.5,145.833 203.5,144.5 Z"/></g>
<g><path style="opacity:0.862" fill="#0b9443" d="M 269.5,145.5 C 270.833,145.5 272.167,145.5 273.5,145.5C 273.5,146.833 273.5,148.167 273.5,149.5C 274.833,149.5 276.167,149.5 277.5,149.5C 277.5,150.5 277.5,151.5 277.5,152.5C 276.167,152.5 274.833,152.5 273.5,152.5C 273.338,154.527 273.505,156.527 274,158.5C 274.741,159.641 275.575,159.641 276.5,158.5C 277.415,159.328 278.081,160.328 278.5,161.5C 275.628,162.783 272.795,162.783 270,161.5C 269.9,157.798 269.067,154.298 267.5,151C 268.885,149.403 269.551,147.57 269.5,145.5 Z"/></g>
<g><path style="opacity:0.862" fill="#0b9443" d="M 392.5,145.5 C 393.833,145.5 395.167,145.5 396.5,145.5C 396.5,146.833 396.5,148.167 396.5,149.5C 398.5,149.5 400.5,149.5 402.5,149.5C 402.5,148.167 402.5,146.833 402.5,145.5C 403.833,145.5 405.167,145.5 406.5,145.5C 406.5,146.833 406.5,148.167 406.5,149.5C 407.833,149.5 409.167,149.5 410.5,149.5C 410.5,150.5 410.5,151.5 410.5,152.5C 409.167,152.5 407.833,152.5 406.5,152.5C 406.338,154.527 406.505,156.527 407,158.5C 407.741,159.641 408.575,159.641 409.5,158.5C 412.498,161.308 411.831,162.641 407.5,162.5C 405.9,162.449 404.4,162.116 403,161.5C 402.502,158.518 402.335,155.518 402.5,152.5C 400.5,152.5 398.5,152.5 396.5,152.5C 396.338,154.527 396.505,156.527 397,158.5C 397.741,159.641 398.575,159.641 399.5,158.5C 400.415,159.328 401.081,160.328 401.5,161.5C 398.628,162.783 395.795,162.783 393,161.5C 392.9,157.798 392.067,154.298 390.5,151C 391.885,149.403 392.551,147.57 392.5,145.5 Z"/></g>
<g><path style="opacity:0.817" fill="#0b9443" d="M 221.5,148.5 C 230.823,146.658 234.656,150.325 233,159.5C 228.333,163.5 223.667,163.5 219,159.5C 217.812,155.259 218.645,151.592 221.5,148.5 Z M 223.5,152.5 C 227.945,151.873 229.612,153.54 228.5,157.5C 223.484,159.125 221.817,157.458 223.5,152.5 Z"/></g>
<g><path style="opacity:0.839" fill="#0b9443" d="M 237.5,148.5 C 241.653,149.02 245.653,149.02 249.5,148.5C 249.666,153.844 249.499,159.177 249,164.5C 244.592,167.925 239.759,168.425 234.5,166C 235.155,164.513 236.155,163.347 237.5,162.5C 239.839,163.724 242.172,163.724 244.5,162.5C 234.267,162.035 231.933,157.368 237.5,148.5 Z M 239.5,152.5 C 241.288,152.215 242.955,152.548 244.5,153.5C 245.82,156.057 244.987,157.724 242,158.5C 239.131,157.123 238.298,155.123 239.5,152.5 Z"/></g>
<g><path style="opacity:0.791" fill="#0b9443" d="M 255.5,148.5 C 259.603,147.769 263.103,148.769 266,151.5C 265.984,155.378 265.484,158.878 264.5,162C 257.748,164.305 253.415,162.139 251.5,155.5C 252.094,152.692 253.427,150.359 255.5,148.5 Z M 258.5,151.5 C 260.196,151.685 261.529,152.519 262.5,154C 260.5,154.667 258.5,154.667 256.5,154C 257.381,153.292 258.047,152.458 258.5,151.5 Z"/></g>
<g><path style="opacity:0.791" fill="#0b9443" d="M 299.5,148.5 C 303.603,147.769 307.103,148.769 310,151.5C 309.984,155.378 309.484,158.878 308.5,162C 301.748,164.305 297.415,162.139 295.5,155.5C 296.094,152.692 297.427,150.359 299.5,148.5 Z M 302.5,151.5 C 304.196,151.685 305.529,152.519 306.5,154C 304.5,154.667 302.5,154.667 300.5,154C 301.381,153.292 302.047,152.458 302.5,151.5 Z"/></g>
<g><path style="opacity:0.905" fill="#0b9443" d="M 312.5,148.5 C 315.5,148.5 318.5,148.5 321.5,148.5C 321.5,149.833 321.5,151.167 321.5,152.5C 319.61,152.297 318.11,152.963 317,154.5C 316.503,157.146 316.336,159.813 316.5,162.5C 315.167,162.5 313.833,162.5 312.5,162.5C 312.5,157.833 312.5,153.167 312.5,148.5 Z"/></g>
<g><path style="opacity:1" fill="#0b9443" d="M 330.5,148.5 C 331.833,148.5 333.167,148.5 334.5,148.5C 334.5,153.167 334.5,157.833 334.5,162.5C 333.167,162.5 331.833,162.5 330.5,162.5C 330.5,157.833 330.5,153.167 330.5,148.5 Z"/></g>
<g><path style="opacity:0.783" fill="#0b9443" d="M 339.5,148.5 C 343.048,148.095 346.381,148.595 349.5,150C 348.023,152.571 346.023,153.071 343.5,151.5C 342.692,151.808 342.025,152.308 341.5,153C 344.053,153.761 346.553,154.594 349,155.5C 349.896,158.025 349.396,160.192 347.5,162C 343.638,162.913 339.972,162.58 336.5,161C 337.191,159.933 337.691,158.766 338,157.5C 340.095,159.05 342.262,159.383 344.5,158.5C 337.484,157.663 335.818,154.33 339.5,148.5 Z"/></g>
<g><path style="opacity:0.767" fill="#0b9443" d="M 377.5,148.5 C 385.232,146.688 389.232,149.688 389.5,157.5C 386.001,157.259 385.668,158.092 388.5,160C 385.276,162.477 381.61,163.143 377.5,162C 373.541,157.501 373.541,153.001 377.5,148.5 Z M 381.5,151.5 C 385.317,154.406 384.651,155.073 379.5,153.5C 380.243,152.818 380.909,152.151 381.5,151.5 Z"/></g>
<g><path style="opacity:0.767" fill="#0b9443" d="M 414.5,148.5 C 422.232,146.688 426.232,149.688 426.5,157.5C 423.001,157.259 422.668,158.092 425.5,160C 422.276,162.477 418.61,163.143 414.5,162C 410.541,157.501 410.541,153.001 414.5,148.5 Z M 418.5,151.5 C 422.317,154.406 421.651,155.073 416.5,153.5C 417.243,152.818 417.909,152.151 418.5,151.5 Z"/></g>
<g><path style="opacity:0.905" fill="#0b9443" d="M 428.5,148.5 C 431.5,148.5 434.5,148.5 437.5,148.5C 437.5,149.833 437.5,151.167 437.5,152.5C 435.61,152.297 434.11,152.963 433,154.5C 432.503,157.146 432.336,159.813 432.5,162.5C 431.167,162.5 429.833,162.5 428.5,162.5C 428.5,157.833 428.5,153.167 428.5,148.5 Z"/></g>
<g><path style="opacity:1" fill="#f1f8f4" d="M 61.5,152.5 C 63.1765,153.183 63.8432,154.517 63.5,156.5C 64.8333,156.5 66.1667,156.5 67.5,156.5C 67.238,155.022 67.5713,153.689 68.5,152.5C 69.8333,155.833 69.8333,159.167 68.5,162.5C 67.5713,161.311 67.238,159.978 67.5,158.5C 66.1667,158.5 64.8333,158.5 63.5,158.5C 63.762,159.978 63.4287,161.311 62.5,162.5C 61.513,159.232 61.1796,155.898 61.5,152.5 Z"/></g>
<g><path style="opacity:1" fill="#eff7f2" d="M 99.5,152.5 C 102.916,151.894 105.582,152.894 107.5,155.5C 106.278,157.978 104.278,158.978 101.5,158.5C 101.762,159.978 101.429,161.311 100.5,162.5C 99.513,159.232 99.1796,155.898 99.5,152.5 Z"/></g>
<g><path style="opacity:1" fill="#3b9950" d="M 101.5,153.5 C 102.5,153.5 103.5,153.5 104.5,153.5C 104.5,154.833 104.5,156.167 104.5,157.5C 103.5,157.5 102.5,157.5 101.5,157.5C 101.5,156.167 101.5,154.833 101.5,153.5 Z"/></g>
<g><path style="opacity:1" fill="#dfefe5" d="M 93.5,154.5 C 96.8333,154.5 98.5,156.167 98.5,159.5C 92.6761,159.347 92.3428,160.013 97.5,161.5C 91.4025,162.214 90.0692,159.881 93.5,154.5 Z"/></g>
<g><path style="opacity:1" fill="#e6f3eb" d="M 117.5,154.5 C 119.346,154.222 120.68,154.889 121.5,156.5C 120.418,156.749 119.085,156.915 117.5,157C 120.706,157.625 121.706,159.291 120.5,162C 118.597,162.774 116.93,162.44 115.5,161C 117.085,160.915 118.418,160.749 119.5,160.5C 118.019,159.52 116.685,158.353 115.5,157C 116.381,156.292 117.047,155.458 117.5,154.5 Z"/></g>
<g><path style="opacity:1" fill="#ddefe4" d="M 72.5,154.5 C 74.1439,154.286 75.6439,154.62 77,155.5C 77.7581,157.769 77.5914,159.936 76.5,162C 74.8876,162.72 73.3876,162.554 72,161.5C 71.2967,159.071 71.4634,156.738 72.5,154.5 Z"/></g>
<g><path style="opacity:1" fill="#e8f4ec" d="M 79.5,154.5 C 82.9271,155.098 86.2605,155.265 89.5,155C 90.7766,157.466 90.7766,159.966 89.5,162.5C 88.5344,160.604 88.2011,158.604 88.5,156.5C 87.5,156.5 86.5,156.5 85.5,156.5C 85.1136,164.398 84.1136,164.398 82.5,156.5C 81.8333,158.5 81.1667,160.5 80.5,162.5C 79.52,159.914 79.1866,157.247 79.5,154.5 Z"/></g>
<g><path style="opacity:1" fill="#d8ebdd" d="M 109.5,154.5 C 113.5,153.833 115.167,155.5 114.5,159.5C 109.318,159.557 109.318,160.224 114.5,161.5C 112.926,162.631 111.259,162.798 109.5,162C 108.221,159.502 108.221,157.002 109.5,154.5 Z"/></g>
<g><path style="opacity:1" fill="#007c1b" d="M 73.5,156.5 C 74.5862,156.62 75.2528,157.287 75.5,158.5C 75.1667,159.167 74.8333,159.833 74.5,160.5C 73.5713,159.311 73.238,157.978 73.5,156.5 Z"/></g>
<g><path style="opacity:1" fill="#dbece0" d="M 124.5,154.5 C 126.144,154.286 127.644,154.62 129,155.5C 129.497,157.81 129.663,160.143 129.5,162.5C 127.5,162.5 125.5,162.5 123.5,162.5C 123.241,159.52 124.574,157.687 127.5,157C 126.216,156.316 125.049,156.483 124,157.5C 123.53,156.423 123.697,155.423 124.5,154.5 Z"/></g>
</svg>
