<?xml version="1.0" encoding="UTF-8"?>
<!DOCTYPE svg PUBLIC "-//W3C//DTD SVG 1.1//EN" "http://www.w3.org/Graphics/SVG/1.1/DTD/svg11.dtd">
<svg xmlns="http://www.w3.org/2000/svg" version="1.1" width="1080px" height="1080px" style="shape-rendering:geometricPrecision; text-rendering:geometricPrecision; image-rendering:optimizeQuality; fill-rule:evenodd; clip-rule:evenodd" xmlns:xlink="http://www.w3.org/1999/xlink">
<g><path style="opacity:1" fill="#0b9444" d="M -0.5,-0.5 C 359.5,-0.5 719.5,-0.5 1079.5,-0.5C 1079.5,359.5 1079.5,719.5 1079.5,1079.5C 719.5,1079.5 359.5,1079.5 -0.5,1079.5C -0.5,719.5 -0.5,359.5 -0.5,-0.5 Z"/></g>
<g><path style="opacity:1" fill="#fefefe" d="M 374.5,160.5 C 394.833,160.5 415.167,160.5 435.5,160.5C 435.333,225.168 435.5,289.834 436,354.5C 436.383,355.056 436.883,355.389 437.5,355.5C 440.97,367.622 448.304,376.289 459.5,381.5C 461.562,382.776 463.896,383.61 466.5,384C 528.832,384.5 591.166,384.667 653.5,384.5C 707.075,389.95 748.409,415.284 777.5,460.5C 786.005,475.582 792.005,491.582 795.5,508.5C 795.362,513.414 796.028,518.081 797.5,522.5C 798.499,575.331 798.832,628.331 798.5,681.5C 796.973,685.946 795.973,690.613 795.5,695.5C 783.986,733.675 758.653,757.008 719.5,765.5C 716.447,765.111 713.78,765.777 711.5,767.5C 691.167,767.5 670.833,767.5 650.5,767.5C 650.667,700.833 650.5,634.166 650,567.5C 645.678,551.345 635.511,541.012 619.5,536.5C 548.659,535.801 477.659,535.134 406.5,534.5C 358.542,524.06 323.042,497.06 300,453.5C 291.885,437.047 286.552,419.714 284,401.5C 283.5,394.508 283.334,387.508 283.5,380.5C 283.5,379.167 283.5,377.833 283.5,376.5C 284.208,330.99 284.875,285.323 285.5,239.5C 285.5,238.167 285.5,236.833 285.5,235.5C 293.159,205.056 311.159,182.889 339.5,169C 345.571,166.254 351.905,164.421 358.5,163.5C 364.105,163.221 369.438,162.221 374.5,160.5 Z"/></g>
<g><path style="opacity:1" fill="#bce1ca" d="M 374.5,160.5 C 369.438,162.221 364.105,163.221 358.5,163.5C 363.473,161.24 368.806,160.24 374.5,160.5 Z"/></g>
<g><path style="opacity:1" fill="#fefefe" d="M 706.5,169.5 C 710.506,168.691 714.173,167.358 717.5,165.5C 721.652,164.448 725.985,163.614 730.5,163C 753.164,162.5 775.831,162.333 798.5,162.5C 798.667,252.834 798.5,343.167 798,433.5C 764.728,377.108 715.228,349.775 649.5,351.5C 649.333,316.832 649.5,282.165 650,247.5C 654.489,214.364 670.989,189.198 699.5,172C 702.06,171.616 704.394,170.783 706.5,169.5 Z"/></g>
<g><path style="opacity:1" fill="#d0ebdc" d="M 435.5,160.5 C 436.174,225.373 436.84,290.373 437.5,355.5C 436.883,355.389 436.383,355.056 436,354.5C 435.5,289.834 435.333,225.168 435.5,160.5 Z"/></g>
<g><path style="opacity:1" fill="#c2e4ce" d="M 717.5,165.5 C 714.173,167.358 710.506,168.691 706.5,169.5C 709.626,167.01 713.292,165.677 717.5,165.5 Z"/></g>
<g><path style="opacity:1" fill="#79c498" d="M 285.5,235.5 C 285.5,236.833 285.5,238.167 285.5,239.5C 284.686,241.631 284.186,243.964 284,246.5C 283.5,289.832 283.333,333.165 283.5,376.5C 283.5,377.833 283.5,379.167 283.5,380.5C 282.335,335.669 282.169,290.669 283,245.5C 283.149,241.867 283.982,238.534 285.5,235.5 Z"/></g>
<g><path style="opacity:1" fill="#e9f4ec" d="M 285.5,239.5 C 284.875,285.323 284.208,330.99 283.5,376.5C 283.333,333.165 283.5,289.832 284,246.5C 284.186,243.964 284.686,241.631 285.5,239.5 Z"/></g>
<g><path style="opacity:1" fill="#31a460" d="M 459.5,381.5 C 462.271,381.421 464.937,381.921 467.5,383C 529.668,383.167 591.668,383.667 653.5,384.5C 591.166,384.667 528.832,384.5 466.5,384C 463.896,383.61 461.562,382.776 459.5,381.5 Z"/></g>
<g><path style="opacity:1" fill="#fefefe" d="M 283.5,476.5 C 307.475,531.343 349.142,563.343 408.5,572.5C 417.81,573.498 427.143,573.832 436.5,573.5C 435.852,613.502 435.018,653.502 434,693.5C 431.067,720.88 417.9,741.714 394.5,756C 388.743,758.55 383.077,761.05 377.5,763.5C 372.188,764.395 366.855,765.229 361.5,766C 360.584,766.278 359.918,766.778 359.5,767.5C 334.167,767.5 308.833,767.5 283.5,767.5C 283.121,701.834 282.788,636.167 282.5,570.5C 282.168,538.996 282.502,507.662 283.5,476.5 Z"/></g>
<g><path style="opacity:1" fill="#acdabf" d="M 283.5,476.5 C 282.502,507.662 282.168,538.996 282.5,570.5C 281.833,548.167 281.167,525.833 280.5,503.5C 280.333,492.828 280.5,482.161 281,471.5C 282.12,473.03 282.954,474.697 283.5,476.5 Z"/></g>
<g><path style="opacity:1" fill="#bee3cd" d="M 795.5,508.5 C 796.972,512.919 797.638,517.586 797.5,522.5C 796.028,518.081 795.362,513.414 795.5,508.5 Z"/></g>
<g><path style="opacity:1" fill="#cae8d8" d="M 406.5,534.5 C 477.659,535.134 548.659,535.801 619.5,536.5C 551.499,536.667 483.499,536.5 415.5,536C 412.305,535.819 409.305,535.319 406.5,534.5 Z"/></g>
<g><path style="opacity:1" fill="#71c092" d="M 280.5,503.5 C 281.167,525.833 281.833,548.167 282.5,570.5C 282.788,636.167 283.121,701.834 283.5,767.5C 281.869,679.671 280.869,591.671 280.5,503.5 Z"/></g>
<g><path style="opacity:1" fill="#5db57d" d="M 798.5,681.5 C 799.089,686.689 798.089,691.355 795.5,695.5C 795.973,690.613 796.973,685.946 798.5,681.5 Z"/></g>
<g><path style="opacity:1" fill="#6cbc89" d="M 377.5,763.5 C 377.389,764.117 377.056,764.617 376.5,765C 370.861,766.08 365.195,766.913 359.5,767.5C 359.918,766.778 360.584,766.278 361.5,766C 366.855,765.229 372.188,764.395 377.5,763.5 Z"/></g>
<g><path style="opacity:1" fill="#a8d9bc" d="M 719.5,765.5 C 717.095,766.768 714.428,767.435 711.5,767.5C 713.78,765.777 716.447,765.111 719.5,765.5 Z"/></g>
<g><path style="opacity:1" fill="#fafcfb" d="M 302.5,832.5 C 312.319,833.494 322.319,833.827 332.5,833.5C 332.5,822.833 332.5,812.167 332.5,801.5C 337.5,801.5 342.5,801.5 347.5,801.5C 347.5,826.167 347.5,850.833 347.5,875.5C 342.5,875.5 337.5,875.5 332.5,875.5C 332.5,865.167 332.5,854.833 332.5,844.5C 322.319,844.173 312.319,844.506 302.5,845.5C 302.5,855.5 302.5,865.5 302.5,875.5C 297.5,875.5 292.5,875.5 287.5,875.5C 287.5,850.833 287.5,826.167 287.5,801.5C 292.5,801.5 297.5,801.5 302.5,801.5C 302.5,811.833 302.5,822.167 302.5,832.5 Z"/></g>
<g><path style="opacity:1" fill="#fbfcfb" d="M 564.5,801.5 C 576.505,801.333 588.505,801.5 600.5,802C 616.848,806.529 623.014,817.029 619,833.5C 615.287,840.878 609.454,845.712 601.5,848C 594.174,848.5 586.841,848.666 579.5,848.5C 579.5,857.5 579.5,866.5 579.5,875.5C 574.5,875.5 569.5,875.5 564.5,875.5C 564.5,850.833 564.5,826.167 564.5,801.5 Z"/></g>
<g><path style="opacity:1" fill="#6bb282" d="M 332.5,801.5 C 332.5,812.167 332.5,822.833 332.5,833.5C 322.319,833.827 312.319,833.494 302.5,832.5C 312.167,832.5 321.833,832.5 331.5,832.5C 331.172,821.986 331.506,811.653 332.5,801.5 Z"/></g>
<g><path style="opacity:1" fill="#b2d5bd" d="M 595.5,813.5 C 590.167,813.5 584.833,813.5 579.5,813.5C 579.5,821.167 579.5,828.833 579.5,836.5C 585.167,836.5 590.833,836.5 596.5,836.5C 590.69,837.49 584.69,837.823 578.5,837.5C 578.5,829.167 578.5,820.833 578.5,812.5C 584.358,812.178 590.025,812.511 595.5,813.5 Z"/></g>
<g><path style="opacity:1" fill="#0f9445" d="M 595.5,813.5 C 602.009,814.515 605.009,818.349 604.5,825C 605.129,831.195 602.462,835.028 596.5,836.5C 590.833,836.5 585.167,836.5 579.5,836.5C 579.5,828.833 579.5,821.167 579.5,813.5C 584.833,813.5 590.167,813.5 595.5,813.5 Z"/></g>
<g><path style="opacity:1" fill="#f9fbf9" d="M 376.5,819.5 C 392.711,816.915 403.544,823.249 409,838.5C 412.248,851.633 409.082,862.8 399.5,872C 389.7,877.556 379.7,877.89 369.5,873C 363.024,868.561 359.19,862.395 358,854.5C 355.326,837.836 361.492,826.169 376.5,819.5 Z"/></g>
<g><path style="opacity:1" fill="#f8fbf9" d="M 418.5,819.5 C 423.167,819.5 427.833,819.5 432.5,819.5C 432.337,821.857 432.503,824.19 433,826.5C 441.822,818 451.156,817.334 461,824.5C 461.667,825.833 462.333,827.167 463,828.5C 470.473,818.751 479.64,816.918 490.5,823C 493.164,825.669 494.998,828.836 496,832.5C 496.5,846.829 496.667,861.163 496.5,875.5C 491.5,875.5 486.5,875.5 481.5,875.5C 481.667,862.163 481.5,848.829 481,835.5C 479.471,832.484 476.971,831.151 473.5,831.5C 469.965,831.351 467.132,832.684 465,835.5C 464.5,848.829 464.333,862.163 464.5,875.5C 459.5,875.5 454.5,875.5 449.5,875.5C 449.667,862.163 449.5,848.829 449,835.5C 447.865,832.141 445.532,830.808 442,831.5C 438.8,831.147 436.133,832.147 434,834.5C 433.5,848.163 433.333,861.829 433.5,875.5C 428.5,875.5 423.5,875.5 418.5,875.5C 418.5,856.833 418.5,838.167 418.5,819.5 Z"/></g>
<g><path style="opacity:1" fill="#f9fbf9" d="M 554.5,839.5 C 554.5,843.5 554.5,847.5 554.5,851.5C 543.654,851.172 532.987,851.506 522.5,852.5C 524.301,864.121 530.967,867.954 542.5,864C 545.089,862.686 547.756,862.019 550.5,862C 551.961,864.421 553.294,866.921 554.5,869.5C 551.87,871.821 548.87,873.654 545.5,875C 515.726,879.893 503.226,867.393 508,837.5C 511.345,825.657 519.178,819.657 531.5,819.5C 544.787,819.791 552.454,826.458 554.5,839.5 Z"/></g>
<g><path style="opacity:1" fill="#f9fbf9" d="M 674.5,839.5 C 674.5,843.5 674.5,847.5 674.5,851.5C 663.654,851.172 652.987,851.506 642.5,852.5C 644.301,864.121 650.967,867.954 662.5,864C 665.089,862.686 667.756,862.019 670.5,862C 671.961,864.421 673.294,866.921 674.5,869.5C 671.87,871.821 668.87,873.654 665.5,875C 635.726,879.893 623.226,867.393 628,837.5C 631.345,825.657 639.178,819.657 651.5,819.5C 664.787,819.791 672.454,826.458 674.5,839.5 Z"/></g>
<g><path style="opacity:1" fill="#f8fbf9" d="M 696.5,819.5 C 707.735,817.413 717.235,820.413 725,828.5C 726.289,831.351 726.789,834.351 726.5,837.5C 721.833,837.5 717.167,837.5 712.5,837.5C 712.051,832.054 709.051,829.388 703.5,829.5C 696.965,830.568 695.299,833.902 698.5,839.5C 705.096,841.771 711.762,843.938 718.5,846C 728.143,851.933 729.976,859.767 724,869.5C 714.855,876.518 704.689,878.352 693.5,875C 685.571,872.247 681.237,866.747 680.5,858.5C 685.214,858.173 689.88,858.507 694.5,859.5C 696.837,865.336 701.17,867.502 707.5,866C 712.349,864.639 713.682,861.639 711.5,857C 703.294,854.597 695.294,851.597 687.5,848C 680.287,839.015 680.953,830.682 689.5,823C 691.925,821.787 694.259,820.621 696.5,819.5 Z"/></g>
<g><path style="opacity:1" fill="#f8fbf9" d="M 752.5,819.5 C 762.745,817.93 771.578,820.597 779,827.5C 780.562,829.957 781.562,832.624 782,835.5C 782.333,847.167 782.667,858.833 783,870.5C 783.346,872.218 783.846,873.885 784.5,875.5C 779.533,876.662 774.533,876.829 769.5,876C 768.745,873.825 767.912,871.659 767,869.5C 761.245,876.037 754.078,878.203 745.5,876C 735.92,871.973 732.42,864.807 735,854.5C 737.992,849.187 742.492,845.687 748.5,844C 754.825,843.5 761.158,843.334 767.5,843.5C 768.291,833.788 763.958,829.955 754.5,832C 752.393,833.264 751.393,835.097 751.5,837.5C 746.5,837.5 741.5,837.5 736.5,837.5C 737.967,828.035 743.3,822.035 752.5,819.5 Z"/></g>
<g><path style="opacity:1" fill="#159546" d="M 379.5,831.5 C 386.838,829.678 391.671,832.344 394,839.5C 395.356,847.529 394.356,855.195 391,862.5C 386.611,864.949 382.111,865.116 377.5,863C 371.574,853.808 371.074,844.308 376,834.5C 377.145,833.364 378.312,832.364 379.5,831.5 Z"/></g>
<g><path style="opacity:1" fill="#0f9445" d="M 539.5,836.5 C 539.5,838.167 539.5,839.833 539.5,841.5C 533.833,841.5 528.167,841.5 522.5,841.5C 523.546,832.95 528.212,829.783 536.5,832C 538.141,833.129 539.141,834.629 539.5,836.5 Z"/></g>
<g><path style="opacity:1" fill="#0f9445" d="M 659.5,836.5 C 659.5,838.167 659.5,839.833 659.5,841.5C 653.833,841.5 648.167,841.5 642.5,841.5C 643.546,832.95 648.212,829.783 656.5,832C 658.141,833.129 659.141,834.629 659.5,836.5 Z"/></g>
<g><path style="opacity:1" fill="#5dad77" d="M 539.5,836.5 C 540.461,838.265 540.795,840.265 540.5,842.5C 534.31,842.823 528.31,842.49 522.5,841.5C 528.167,841.5 533.833,841.5 539.5,841.5C 539.5,839.833 539.5,838.167 539.5,836.5 Z"/></g>
<g><path style="opacity:1" fill="#5dad77" d="M 659.5,836.5 C 660.461,838.265 660.795,840.265 660.5,842.5C 654.31,842.823 648.31,842.49 642.5,841.5C 648.167,841.5 653.833,841.5 659.5,841.5C 659.5,839.833 659.5,838.167 659.5,836.5 Z"/></g>
<g><path style="opacity:1" fill="#6fb486" d="M 302.5,845.5 C 312.319,844.506 322.319,844.173 332.5,844.5C 332.5,854.833 332.5,865.167 332.5,875.5C 331.506,865.681 331.173,855.681 331.5,845.5C 321.833,845.5 312.167,845.5 302.5,845.5 Z"/></g>
<g><path style="opacity:1" fill="#c8e0ce" d="M 554.5,839.5 C 555.485,843.634 555.818,847.968 555.5,852.5C 544.5,852.5 533.5,852.5 522.5,852.5C 532.987,851.506 543.654,851.172 554.5,851.5C 554.5,847.5 554.5,843.5 554.5,839.5 Z"/></g>
<g><path style="opacity:1" fill="#c8e0ce" d="M 674.5,839.5 C 675.485,843.634 675.818,847.968 675.5,852.5C 664.5,852.5 653.5,852.5 642.5,852.5C 652.987,851.506 663.654,851.172 674.5,851.5C 674.5,847.5 674.5,843.5 674.5,839.5 Z"/></g>
<g><path style="opacity:1" fill="#a2ccae" d="M 755.5,851.5 C 759.298,850.517 763.298,850.183 767.5,850.5C 767.81,853.713 767.477,856.713 766.5,859.5C 766.5,856.833 766.5,854.167 766.5,851.5C 762.833,851.5 759.167,851.5 755.5,851.5 Z"/></g>
<g><path style="opacity:1" fill="#129446" d="M 755.5,851.5 C 759.167,851.5 762.833,851.5 766.5,851.5C 766.5,854.167 766.5,856.833 766.5,859.5C 762.568,864.123 757.568,865.623 751.5,864C 747.936,858.171 749.269,854.005 755.5,851.5 Z"/></g>
</svg>
