<?xml version="1.0" encoding="UTF-8"?>
<!DOCTYPE svg PUBLIC "-//W3C//DTD SVG 1.1//EN" "http://www.w3.org/Graphics/SVG/1.1/DTD/svg11.dtd">
<svg xmlns="http://www.w3.org/2000/svg" version="1.1" width="2311px" height="1693px" style="shape-rendering:geometricPrecision; text-rendering:geometricPrecision; image-rendering:optimizeQuality; fill-rule:evenodd; clip-rule:evenodd" xmlns:xlink="http://www.w3.org/1999/xlink">
<g><path style="opacity:0.97" fill="#0d8b37" d="M 1968.5,33.5 C 2059.74,133.749 2061.24,235.415 1973,338.5C 1971.94,339.899 1970.61,340.899 1969,341.5C 1931.76,303.36 1909.1,257.694 1901,204.5C 1898.23,172.106 1903.57,141.106 1917,111.5C 1929.95,82.5561 1947.12,56.5561 1968.5,33.5 Z M 1968.5,107.5 C 2025.65,171.255 2025.82,235.255 1969,299.5C 1949.69,278.549 1936.35,254.215 1929,226.5C 1924.17,202.311 1926.84,178.978 1937,156.5C 1945.53,138.751 1956.03,122.418 1968.5,107.5 Z"/></g>
<g><path style="opacity:0.986" fill="#0d8b37" d="M 2220.5,124.5 C 2229.99,155.682 2233.49,187.682 2231,220.5C 2227.22,257.564 2210.39,287.064 2180.5,309C 2172.1,315.06 2163.44,320.727 2154.5,326C 2134.67,337.081 2115,348.414 2095.5,360C 2064.67,379.325 2041.01,405.158 2024.5,437.5C 2013.06,402.173 2010.22,366.173 2016,329.5C 2023.54,297.622 2040.38,271.788 2066.5,252C 2073.5,247 2080.5,242 2087.5,237C 2111.1,223.063 2134.43,208.73 2157.5,194C 2175.57,181.264 2191.74,166.431 2206,149.5C 2211.87,141.767 2216.7,133.433 2220.5,124.5 Z"/></g>
<g><path style="opacity:0.964" fill="#0d8b37" d="M 1968.5,163.5 C 1996.08,191.342 1999.58,222.009 1979,255.5C 1975.97,259.529 1972.63,263.196 1969,266.5C 1937.87,232.47 1937.7,198.137 1968.5,163.5 Z"/></g>
<g><path style="opacity:0.986" fill="#0d8b37" d="M 1801.5,221.5 C 1812.28,241.458 1826.28,258.958 1843.5,274C 1869.82,293.968 1897.48,311.968 1926.5,328C 1944.43,338.923 1960.93,351.756 1976,366.5C 2002.26,396.481 2013.59,431.481 2010,471.5C 2008.75,492.99 2004.92,513.99 1998.5,534.5C 1980.57,500.068 1954.9,472.902 1921.5,453C 1895.84,438.504 1870.5,423.504 1845.5,408C 1813.97,386.092 1796.14,355.925 1792,317.5C 1789.82,284.952 1792.99,252.952 1801.5,221.5 Z"/></g>
<g><path style="opacity:0.995" fill="#0d8b37" d="M 1114.5,561.5 C 1183.5,561.5 1252.5,561.5 1321.5,561.5C 1317.69,594.091 1309.19,625.425 1296,655.5C 1280.65,689.868 1262.99,722.868 1243,754.5C 1209.41,812.592 1186.08,874.592 1173,940.5C 1147.14,1111.79 1208.31,1241.29 1356.5,1329C 1387.4,1346.08 1419.57,1360.24 1453,1371.5C 1433.49,1327.95 1426.16,1282.29 1431,1234.5C 1437.09,1180.14 1450.09,1127.47 1470,1076.5C 1499.33,1005.17 1528.67,933.833 1558,862.5C 1588.74,775.573 1589.07,688.573 1559,601.5C 1554.23,588.04 1548.4,575.04 1541.5,562.5C 1620.83,561.5 1700.16,561.167 1779.5,561.5C 1779.97,725.844 1779.47,890.177 1778,1054.5C 1774.57,1120.12 1756.23,1181.12 1723,1237.5C 1676.86,1308.27 1613.03,1355.43 1531.5,1379C 1461.6,1397.84 1390.6,1403.51 1318.5,1396C 1253.08,1390.53 1192.42,1370.86 1136.5,1337C 1060.25,1285.75 1012.41,1214.91 993,1124.5C 986.707,1094.82 983.04,1064.82 982,1034.5C 981.333,922.167 981.333,809.833 982,697.5C 988.311,639.335 1017.81,597.835 1070.5,573C 1084.8,567.259 1099.47,563.425 1114.5,561.5 Z"/></g>
<g><path style="opacity:0.972" fill="#0d8b37" d="M 1427.5,561.5 C 1447.83,561.5 1468.17,561.5 1488.5,561.5C 1488.26,611.928 1480.76,661.262 1466,709.5C 1460.6,727.379 1454.6,745.045 1448,762.5C 1424.67,815.153 1403.01,868.486 1383,922.5C 1365.59,970.804 1351.92,1020.14 1342,1070.5C 1334.8,1105.58 1332.8,1140.92 1336,1176.5C 1327.53,1162.76 1322.87,1147.76 1322,1131.5C 1319.77,1100.36 1321.11,1069.36 1326,1038.5C 1335.96,977.997 1350.63,918.663 1370,860.5C 1383.01,822.49 1396.01,784.49 1409,746.5C 1425.24,695.732 1432.57,643.732 1431,590.5C 1430.41,580.742 1429.24,571.075 1427.5,561.5 Z"/></g>
<g><path style="opacity:0.999" fill="#0d8b37" d="M 1847.5,561.5 C 1939.5,561.5 2031.5,561.5 2123.5,561.5C 2123.67,789.5 2123.5,1017.5 2123,1245.5C 2112.29,1313.09 2074.12,1356.59 2008.5,1376C 1999.27,1378.08 1989.94,1379.41 1980.5,1380C 1936.17,1380.5 1891.83,1380.67 1847.5,1380.5C 1847.5,1107.5 1847.5,834.5 1847.5,561.5 Z"/></g>
<g><path style="opacity:0.996" fill="#0d8b37" d="M 142.5,570.5 C 233.167,570.5 323.833,570.5 414.5,570.5C 414.333,668.834 414.5,767.167 415,865.5C 479,794.833 543,724.167 607,653.5C 653.042,606.731 708.876,579.565 774.5,572C 811.483,570.878 848.483,570.378 885.5,570.5C 918.167,570.833 950.833,571.167 983.5,571.5C 874.712,691.591 766.045,811.758 657.5,932C 771.819,1084.32 886.152,1236.66 1000.5,1389C 893.5,1389.67 786.5,1389.67 679.5,1389C 611.667,1299.17 543.833,1209.33 476,1119.5C 455.667,1141.83 435.333,1164.17 415,1186.5C 414.5,1254.17 414.333,1321.83 414.5,1389.5C 361.499,1389.67 308.499,1389.5 255.5,1389C 202.038,1381.52 166.204,1352.35 148,1301.5C 145.561,1292.64 143.895,1283.64 143,1274.5C 142.5,1039.83 142.333,805.167 142.5,570.5 Z"/></g>
<g><path style="opacity:0.951" fill="#0d8b37" d="M 798.5,1445.5 C 819.277,1445.05 826.444,1454.72 820,1474.5C 812.015,1483.07 802.848,1484.57 792.5,1479C 785.368,1472.16 783.535,1463.99 787,1454.5C 790.045,1450.41 793.878,1447.41 798.5,1445.5 Z"/></g>
<g><path style="opacity:0.979" fill="#0d8b37" d="M 680.5,1453.5 C 685.223,1454.01 689.889,1454.84 694.5,1456C 697.381,1457.25 699.214,1459.42 700,1462.5C 700.333,1485.5 700.667,1508.5 701,1531.5C 713.833,1518.67 726.667,1505.83 739.5,1493C 749.821,1491.25 757.654,1494.75 763,1503.5C 764.708,1510.47 763.041,1516.47 758,1521.5C 748.5,1529.67 739,1537.83 729.5,1546C 741.696,1558.53 754.196,1570.7 767,1582.5C 767.896,1595.1 762.063,1602.1 749.5,1603.5C 740.549,1602.72 733.383,1598.72 728,1591.5C 719.376,1580.54 710.376,1569.87 701,1559.5C 700.5,1573.5 700.333,1587.5 700.5,1601.5C 692.535,1602.57 684.535,1602.74 676.5,1602C 672.104,1601.27 669.27,1598.77 668,1594.5C 667.5,1548.17 667.333,1501.83 667.5,1455.5C 671.993,1455.02 676.327,1454.36 680.5,1453.5 Z"/></g>
<g><path style="opacity:0.967" fill="#0d8b37" d="M 173.5,1463.5 C 180.838,1462.86 187.838,1464.03 194.5,1467C 195.46,1468.42 196.293,1469.92 197,1471.5C 198.287,1487.1 198.954,1502.77 199,1518.5C 214.648,1500.68 230.481,1483.02 246.5,1465.5C 254.967,1463.89 262.467,1465.89 269,1471.5C 273.993,1480.24 273.327,1488.57 267,1496.5C 254.5,1509 242,1521.5 229.5,1534C 245.333,1550.5 261.167,1567 277,1583.5C 278.266,1593.47 274.099,1599.97 264.5,1603C 253.801,1604.99 244.967,1601.82 238,1593.5C 225.372,1578.54 212.372,1563.87 199,1549.5C 198.5,1566.83 198.333,1584.16 198.5,1601.5C 188.761,1604.14 179.094,1603.98 169.5,1601C 167.622,1599.46 166.122,1597.62 165,1595.5C 163.521,1552.21 163.021,1508.88 163.5,1465.5C 167.011,1465.1 170.344,1464.43 173.5,1463.5 Z"/></g>
<g><path style="opacity:0.966" fill="#0d8b37" d="M 903.5,1463.5 C 909.232,1463.28 914.899,1463.78 920.5,1465C 925.228,1466.4 927.728,1469.56 928,1474.5C 928.5,1516.83 928.667,1559.17 928.5,1601.5C 920.194,1602.54 911.861,1602.7 903.5,1602C 899.501,1601.33 896.668,1599.17 895,1595.5C 893.521,1552.21 893.021,1508.88 893.5,1465.5C 897.011,1465.1 900.344,1464.43 903.5,1463.5 Z"/></g>
<g><path style="opacity:0.977" fill="#0d8b37" d="M 1433.5,1465.5 C 1456.61,1463.31 1464.94,1473.64 1458.5,1496.5C 1469.19,1496.17 1479.85,1496.5 1490.5,1497.5C 1494,1504.47 1494.17,1511.47 1491,1518.5C 1489.79,1520.05 1488.29,1521.22 1486.5,1522C 1477.17,1522.5 1467.84,1522.67 1458.5,1522.5C 1458.08,1538.88 1458.58,1555.22 1460,1571.5C 1465.36,1577.06 1471.86,1578.89 1479.5,1577C 1482.26,1576.47 1484.93,1575.63 1487.5,1574.5C 1492.17,1579.64 1493.67,1585.64 1492,1592.5C 1489.77,1597.73 1485.94,1601.23 1480.5,1603C 1465.54,1606.26 1451.21,1604.59 1437.5,1598C 1430.94,1592.71 1427.11,1585.88 1426,1577.5C 1425.5,1540.83 1425.33,1504.17 1425.5,1467.5C 1428.37,1467.2 1431.04,1466.53 1433.5,1465.5 Z"/></g>
<g><path style="opacity:0.977" fill="#0d8b37" d="M 1954.5,1465.5 C 1960.58,1465.2 1966.58,1465.7 1972.5,1467C 1974.62,1468.12 1976.46,1469.62 1978,1471.5C 1979.41,1479.75 1979.91,1488.08 1979.5,1496.5C 1990.19,1496.17 2000.85,1496.5 2011.5,1497.5C 2014.84,1504.49 2015.01,1511.49 2012,1518.5C 2010.79,1520.05 2009.29,1521.22 2007.5,1522C 1998.17,1522.5 1988.84,1522.67 1979.5,1522.5C 1979.06,1538.89 1979.56,1555.22 1981,1571.5C 1986.36,1577.06 1992.86,1578.89 2000.5,1577C 2003.26,1576.47 2005.93,1575.63 2008.5,1574.5C 2013.66,1580.4 2014.83,1587.07 2012,1594.5C 2009.71,1598.79 2006.21,1601.62 2001.5,1603C 1986.54,1606.26 1972.21,1604.59 1958.5,1598C 1952.23,1592.96 1948.39,1586.46 1947,1578.5C 1946.5,1541.5 1946.33,1504.5 1946.5,1467.5C 1949.37,1467.2 1952.04,1466.53 1954.5,1465.5 Z"/></g>
<g><path style="opacity:0.971" fill="#0d8b37" d="M 463.5,1490.5 C 479.904,1488.91 495.237,1492.08 509.5,1500C 516.973,1506.11 521.473,1513.94 523,1523.5C 523.5,1549.5 523.667,1575.5 523.5,1601.5C 515.528,1602.53 507.528,1602.7 499.5,1602C 494.333,1600.83 491.167,1597.67 490,1592.5C 489.667,1571.17 489.333,1549.83 489,1528.5C 486.199,1521 480.699,1517.34 472.5,1517.5C 466.274,1517.85 460.44,1519.52 455,1522.5C 454.5,1548.83 454.333,1575.16 454.5,1601.5C 446.528,1602.53 438.528,1602.7 430.5,1602C 426.501,1601.33 423.668,1599.17 422,1595.5C 420.369,1568.55 420.035,1541.55 421,1514.5C 422.326,1507.68 426.16,1502.85 432.5,1500C 442.44,1495.11 452.774,1491.94 463.5,1490.5 Z"/></g>
<g><path style="opacity:0.97" fill="#0d8b37" d="M 581.5,1490.5 C 598.22,1488.88 613.887,1492.04 628.5,1500C 636.786,1506.07 641.286,1514.24 642,1524.5C 642.966,1545.56 642.632,1566.56 641,1587.5C 637.104,1593.71 631.604,1597.87 624.5,1600C 614.483,1603.64 604.15,1605.14 593.5,1604.5C 575.563,1606.57 560.396,1601.24 548,1588.5C 541.517,1576.88 540.851,1564.88 546,1552.5C 551.805,1543.71 559.971,1538.55 570.5,1537C 583.475,1535.24 596.475,1533.74 609.5,1532.5C 609.422,1524.92 605.755,1520.09 598.5,1518C 583.802,1515.53 569.635,1517.36 556,1523.5C 553.046,1521.61 551.046,1518.94 550,1515.5C 547.03,1505.27 550.53,1498.44 560.5,1495C 567.514,1492.9 574.514,1491.4 581.5,1490.5 Z M 607.5,1555.5 C 608.821,1558.6 609.488,1562.1 609.5,1566C 609.167,1569.5 608.833,1573 608.5,1576.5C 599.202,1580.07 589.869,1580.23 580.5,1577C 573.889,1571.16 573.889,1565.49 580.5,1560C 589.528,1557.87 598.528,1556.37 607.5,1555.5 Z"/></g>
<g><path style="opacity:0.969" fill="#0d8b37" d="M 998.5,1490.5 C 1014.38,1488.93 1029.38,1491.77 1043.5,1499C 1052.96,1506.08 1058.13,1515.58 1059,1527.5C 1059.5,1552.16 1059.67,1576.83 1059.5,1601.5C 1051.19,1602.54 1042.86,1602.7 1034.5,1602C 1030.32,1601 1027.49,1598.5 1026,1594.5C 1025.67,1573.17 1025.33,1551.83 1025,1530.5C 1022.76,1521.44 1016.93,1517.1 1007.5,1517.5C 1001.62,1518.05 995.957,1519.39 990.5,1521.5C 990.5,1548.17 990.5,1574.83 990.5,1601.5C 982.194,1602.54 973.861,1602.7 965.5,1602C 962.375,1601.02 959.875,1599.19 958,1596.5C 956.359,1568.56 956.025,1540.56 957,1512.5C 958.689,1507.47 961.856,1503.64 966.5,1501C 976.597,1495.36 987.264,1491.86 998.5,1490.5 Z"/></g>
<g><path style="opacity:0.966" fill="#0d8b37" d="M 1239.5,1490.5 C 1256.76,1488.81 1272.09,1493.31 1285.5,1504C 1297.79,1516.99 1301.29,1531.82 1296,1548.5C 1294.75,1549.21 1293.58,1550.04 1292.5,1551C 1270.65,1555.31 1248.65,1558.98 1226.5,1562C 1230.18,1571 1236.84,1576.34 1246.5,1578C 1252.83,1578.67 1259.17,1578.67 1265.5,1578C 1273.13,1576.16 1280.46,1573.83 1287.5,1571C 1295.28,1577.81 1296.45,1585.64 1291,1594.5C 1279.94,1602.18 1267.61,1605.52 1254,1604.5C 1208.17,1602.22 1188.17,1578.22 1194,1532.5C 1199.77,1508.22 1214.94,1494.22 1239.5,1490.5 Z M 1241.5,1516.5 C 1249.78,1515 1256.95,1517 1263,1522.5C 1265.03,1525.56 1266.2,1528.89 1266.5,1532.5C 1252.94,1534.08 1239.44,1536.08 1226,1538.5C 1225.58,1527.68 1230.75,1520.35 1241.5,1516.5 Z"/></g>
<g><path style="opacity:0.967" fill="#0d8b37" d="M 1350.5,1490.5 C 1365.45,1488.93 1379.78,1491.1 1393.5,1497C 1400.14,1501.92 1402.3,1508.42 1400,1516.5C 1399.12,1519.1 1397.62,1521.27 1395.5,1523C 1385.66,1519.84 1375.49,1517.67 1365,1516.5C 1361.45,1516.64 1357.95,1517.14 1354.5,1518C 1349.69,1519.45 1347.86,1522.62 1349,1527.5C 1350.21,1529.05 1351.71,1530.22 1353.5,1531C 1367.09,1533.65 1380.09,1537.98 1392.5,1544C 1403.74,1552.39 1407.9,1563.56 1405,1577.5C 1401.02,1591.47 1391.86,1599.97 1377.5,1603C 1364.16,1604.98 1350.83,1604.98 1337.5,1603C 1327.57,1601.97 1320.41,1597.14 1316,1588.5C 1313.63,1580.29 1315.96,1573.96 1323,1569.5C 1332.95,1575.15 1343.61,1578.15 1355,1578.5C 1363.3,1580.2 1369.14,1577.37 1372.5,1570C 1371.81,1566.96 1370.15,1564.63 1367.5,1563C 1359.58,1560.69 1351.58,1558.69 1343.5,1557C 1316.23,1548.54 1308.73,1531.37 1321,1505.5C 1329.2,1497.15 1339.03,1492.15 1350.5,1490.5 Z"/></g>
<g><path style="opacity:0.971" fill="#0d8b37" d="M 1552.5,1490.5 C 1567.77,1488.93 1581.77,1492.26 1594.5,1500.5C 1615.96,1487.83 1637.62,1487.33 1659.5,1499C 1667.55,1505.6 1672.05,1514.1 1673,1524.5C 1673.5,1550.16 1673.67,1575.83 1673.5,1601.5C 1665.19,1602.54 1656.86,1602.7 1648.5,1602C 1645.44,1600.94 1642.94,1599.11 1641,1596.5C 1639.7,1573.56 1639.03,1550.56 1639,1527.5C 1636.61,1520.87 1631.77,1517.54 1624.5,1517.5C 1619.39,1517.98 1614.72,1519.65 1610.5,1522.5C 1609.5,1548.82 1609.17,1575.16 1609.5,1601.5C 1601.53,1602.53 1593.53,1602.7 1585.5,1602C 1580.33,1600.83 1577.17,1597.67 1576,1592.5C 1575.67,1570.83 1575.33,1549.17 1575,1527.5C 1572.43,1520.7 1567.43,1517.37 1560,1517.5C 1555.24,1517.92 1550.74,1519.25 1546.5,1521.5C 1545.5,1548.16 1545.17,1574.83 1545.5,1601.5C 1537.54,1602.57 1529.54,1602.74 1521.5,1602C 1517.5,1601.33 1514.67,1599.17 1513,1595.5C 1511.38,1568.87 1511.05,1542.21 1512,1515.5C 1513.47,1508.68 1517.31,1503.51 1523.5,1500C 1532.74,1495.12 1542.4,1491.95 1552.5,1490.5 Z"/></g>
<g><path style="opacity:0.966" fill="#0d8b37" d="M 1739.5,1490.5 C 1758.75,1488.53 1775.25,1494.19 1789,1507.5C 1797.98,1518.77 1800.98,1531.44 1798,1545.5C 1795.44,1549.87 1791.61,1552.37 1786.5,1553C 1766.74,1555.74 1747.07,1558.9 1727.5,1562.5C 1731.3,1571.25 1737.96,1576.41 1747.5,1578C 1753.5,1578.67 1759.5,1578.67 1765.5,1578C 1773.12,1576.17 1780.46,1573.83 1787.5,1571C 1793.75,1575.67 1795.91,1581.84 1794,1589.5C 1791.06,1595.07 1786.56,1598.9 1780.5,1601C 1763.16,1605.64 1745.83,1605.64 1728.5,1601C 1704.42,1591.22 1692.76,1573.22 1693.5,1547C 1693.61,1515.56 1708.94,1496.73 1739.5,1490.5 Z M 1741.5,1516.5 C 1750.4,1514.74 1757.9,1517.07 1764,1523.5C 1765.91,1526.21 1766.74,1529.21 1766.5,1532.5C 1752.78,1534.13 1739.11,1536.13 1725.5,1538.5C 1725.98,1527.5 1731.32,1520.16 1741.5,1516.5 Z"/></g>
<g><path style="opacity:0.972" fill="#0d8b37" d="M 1860.5,1490.5 C 1877.76,1488.6 1893.76,1492.1 1908.5,1501C 1915.97,1507.44 1920.14,1515.61 1921,1525.5C 1921.5,1550.83 1921.67,1576.16 1921.5,1601.5C 1913.19,1602.54 1904.86,1602.7 1896.5,1602C 1893.34,1601.01 1890.84,1599.18 1889,1596.5C 1887.7,1574.23 1887.03,1551.9 1887,1529.5C 1884.44,1521.3 1878.78,1517.3 1870,1517.5C 1863.86,1517.66 1858.2,1519.33 1853,1522.5C 1852.5,1548.83 1852.33,1575.16 1852.5,1601.5C 1844.19,1602.54 1835.86,1602.7 1827.5,1602C 1824.44,1600.94 1821.94,1599.11 1820,1596.5C 1818.36,1568.56 1818.03,1540.56 1819,1512.5C 1820.69,1507.47 1823.86,1503.64 1828.5,1501C 1838.68,1495.63 1849.35,1492.13 1860.5,1490.5 Z"/></g>
<g><path style="opacity:0.965" fill="#0d8b37" d="M 2065.5,1490.5 C 2076.62,1489.96 2087.62,1490.79 2098.5,1493C 2115.67,1497.97 2119.67,1507.97 2110.5,1523C 2100.5,1519.75 2090.16,1517.59 2079.5,1516.5C 2073.69,1516.36 2068.52,1518.02 2064,1521.5C 2062.88,1524.96 2063.71,1527.79 2066.5,1530C 2076.78,1533.15 2087.11,1536.15 2097.5,1539C 2117.95,1547.41 2124.79,1562.24 2118,1583.5C 2113.51,1593.32 2106.01,1599.49 2095.5,1602C 2082.95,1604.46 2070.29,1605.12 2057.5,1604C 2048.74,1602.97 2040.91,1599.81 2034,1594.5C 2030.14,1588.24 2029.48,1581.57 2032,1574.5C 2033.72,1572.44 2035.72,1570.78 2038,1569.5C 2050.85,1577.17 2064.69,1580.01 2079.5,1578C 2087.54,1574.42 2088.54,1569.42 2082.5,1563C 2069.83,1560.42 2057.5,1556.75 2045.5,1552C 2031.87,1543.46 2027.04,1531.29 2031,1515.5C 2034.81,1505.03 2041.97,1497.86 2052.5,1494C 2056.92,1492.65 2061.25,1491.48 2065.5,1490.5 Z"/></g>
<g><path style="opacity:0.966" fill="#0d8b37" d="M 1086.5,1491.5 C 1093.95,1490.65 1100.45,1492.65 1106,1497.5C 1113.66,1522.49 1121.33,1547.49 1129,1572.5C 1136.76,1547.12 1143.43,1521.46 1149,1495.5C 1159.28,1489.86 1169.28,1490.2 1179,1496.5C 1180.87,1499.21 1181.7,1502.21 1181.5,1505.5C 1174.35,1537.46 1163.52,1568.13 1149,1597.5C 1145.12,1600.69 1140.62,1602.52 1135.5,1603C 1128.01,1603.94 1120.68,1603.27 1113.5,1601C 1111.38,1599.88 1109.54,1598.38 1108,1596.5C 1094.15,1566.46 1082.82,1535.46 1074,1503.5C 1073.19,1501.42 1073.36,1499.42 1074.5,1497.5C 1078.32,1494.92 1082.32,1492.92 1086.5,1491.5 Z"/></g>
<g><path style="opacity:0.972" fill="#0d8b37" d="M 299.5,1492.5 C 307.354,1491.91 315.021,1492.74 322.5,1495C 325.181,1497.19 326.681,1500.03 327,1503.5C 327.333,1524.17 327.667,1544.83 328,1565.5C 331.066,1574.54 337.4,1578.54 347,1577.5C 352.281,1577.76 357.281,1576.76 362,1574.5C 362.333,1547.83 362.667,1521.17 363,1494.5C 372.531,1491.69 382.031,1491.85 391.5,1495C 394.181,1497.19 395.681,1500.03 396,1503.5C 396.667,1529.83 396.667,1556.17 396,1582.5C 393.458,1592.04 387.292,1597.87 377.5,1600C 356.697,1606.3 336.03,1605.97 315.5,1599C 302.791,1592.75 295.625,1582.59 294,1568.5C 293.333,1543.83 293.333,1519.17 294,1494.5C 295.948,1493.89 297.782,1493.22 299.5,1492.5 Z"/></g>
<g><path style="opacity:0.991" fill="#0d8b37" d="M 792.5,1493.5 C 799.906,1493.15 807.239,1493.65 814.5,1495C 817.381,1496.25 819.214,1498.42 820,1501.5C 820.5,1534.83 820.667,1568.17 820.5,1601.5C 812.535,1602.57 804.535,1602.74 796.5,1602C 792.104,1601.27 789.27,1598.77 788,1594.5C 787.5,1561.17 787.333,1527.83 787.5,1494.5C 789.415,1494.78 791.081,1494.45 792.5,1493.5 Z"/></g>
</svg>
