<?xml version="1.0" encoding="UTF-8"?>
<!DOCTYPE svg PUBLIC "-//W3C//DTD SVG 1.1//EN" "http://www.w3.org/Graphics/SVG/1.1/DTD/svg11.dtd">
<svg xmlns="http://www.w3.org/2000/svg" version="1.1" width="442px" height="200px" style="shape-rendering:geometricPrecision; text-rendering:geometricPrecision; image-rendering:optimizeQuality; fill-rule:evenodd; clip-rule:evenodd" xmlns:xlink="http://www.w3.org/1999/xlink">
<g><path style="opacity:0.974" fill="#0d9444" d="M -0.5,-0.5 C 26.5,-0.5 53.5,-0.5 80.5,-0.5C 80.5,66.1667 80.5,132.833 80.5,199.5C 53.5,199.5 26.5,199.5 -0.5,199.5C -0.5,132.833 -0.5,66.1667 -0.5,-0.5 Z M 20.5,56.5 C 22.1667,56.5 23.8333,56.5 25.5,56.5C 25.3336,64.5069 25.5003,72.5069 26,80.5C 26.7845,82.286 27.9512,83.786 29.5,85C 39.1402,86.0281 48.8069,87.0281 58.5,88C 68.9456,93.8881 73.6122,102.888 72.5,115C 73.4577,128.543 67.1244,135.043 53.5,134.5C 53.6664,126.493 53.4997,118.493 53,110.5C 52.2155,108.714 51.0488,107.214 49.5,106C 40.4399,105.882 31.4399,105.215 22.5,104C 16.4809,101.913 11.9809,98.0797 9,92.5C 6.24359,83.581 5.91026,74.581 8,65.5C 10.9168,60.6369 15.0835,57.6369 20.5,56.5 Z M 68.5,56.5 C 69.8333,56.5 71.1667,56.5 72.5,56.5C 72.6665,68.8378 72.4999,81.1712 72,93.5C 67.6315,86.8958 61.4648,83.2292 53.5,82.5C 49.8821,68.3596 54.8821,59.693 68.5,56.5 Z M 6.5,97.5 C 10.8361,104.505 17.1695,108.171 25.5,108.5C 25.6661,114.176 25.4994,119.843 25,125.5C 23.1814,130.336 19.6814,133.169 14.5,134C 11.854,134.497 9.1873,134.664 6.5,134.5C 6.5,122.167 6.5,109.833 6.5,97.5 Z"/></g>
<g><path style="opacity:0.935" fill="#0b9443" d="M 260.5,76.5 C 270.506,76.3335 280.506,76.5002 290.5,77C 301.643,81.1211 305.477,88.9545 302,100.5C 299.692,106.136 295.525,109.636 289.5,111C 283.175,111.5 276.842,111.666 270.5,111.5C 270.891,118.921 270.391,126.254 269,133.5C 265.057,136.366 261.39,136.032 258,132.5C 257.333,114.833 257.333,97.1667 258,79.5C 259.045,78.6266 259.878,77.6266 260.5,76.5 Z M 270.5,85.5 C 275.58,85.2497 280.58,85.7497 285.5,87C 292.167,91.6667 292.167,96.3333 285.5,101C 280.58,102.25 275.58,102.75 270.5,102.5C 270.5,96.8333 270.5,91.1667 270.5,85.5 Z"/></g>
<g><path style="opacity:0.922" fill="#0b9443" d="M 220.5,90.5 C 235.823,87.4814 245.156,93.4814 248.5,108.5C 248.353,111.496 247.019,113.662 244.5,115C 235.506,115.5 226.506,115.666 217.5,115.5C 221.895,130.348 229.562,132.182 240.5,121C 247.435,119.563 249.268,122.063 246,128.5C 239.114,135.092 230.948,137.259 221.5,135C 212.605,133.069 207.439,127.569 206,118.5C 203.794,105.237 208.627,95.904 220.5,90.5 Z M 225.5,98.5 C 232.833,98.5 236.5,102.167 236.5,109.5C 230.132,109.83 223.798,109.496 217.5,108.5C 218.417,103.6 221.084,100.267 225.5,98.5 Z"/></g>
<g><path style="opacity:0.922" fill="#0b9443" d="M 320.5,90.5 C 335.823,87.4814 345.156,93.4814 348.5,108.5C 348.353,111.496 347.019,113.662 344.5,115C 335.506,115.5 326.506,115.666 317.5,115.5C 321.895,130.348 329.562,132.182 340.5,121C 347.435,119.563 349.268,122.063 346,128.5C 339.114,135.092 330.948,137.259 321.5,135C 312.605,133.069 307.439,127.569 306,118.5C 303.794,105.237 308.627,95.904 320.5,90.5 Z M 325.5,98.5 C 332.833,98.5 336.5,102.167 336.5,109.5C 330.132,109.83 323.798,109.496 317.5,108.5C 318.417,103.6 321.084,100.267 325.5,98.5 Z"/></g>
<g><path style="opacity:0.915" fill="#0b9443" d="M 441.5,129.5 C 441.5,130.5 441.5,131.5 441.5,132.5C 436.455,136.938 432.121,136.271 428.5,130.5C 422.214,135.113 415.214,136.613 407.5,135C 399.788,132.078 396.955,126.578 399,118.5C 400.122,116.376 401.622,114.543 403.5,113C 410.681,110.496 418.014,108.496 425.5,107C 427.636,104.902 427.636,102.568 425.5,100C 418.046,97.0399 412.379,99.0399 408.5,106C 400.607,107.023 398.44,103.857 402,96.5C 404.626,93.7692 407.793,91.9358 411.5,91C 419.045,89.8737 426.379,90.5404 433.5,93C 435.378,94.5429 436.878,96.3762 438,98.5C 439.18,107.45 439.847,116.45 440,125.5C 440.21,127.058 440.71,128.391 441.5,129.5 Z M 424.5,114.5 C 425.5,114.5 426.5,114.5 427.5,114.5C 428.319,122.682 424.652,127.349 416.5,128.5C 411.156,127.655 409.323,124.655 411,119.5C 415.346,117.133 419.846,115.466 424.5,114.5 Z"/></g>
<g><path style="opacity:0.919" fill="#0b9443" d="M 98.5,91.5 C 121.276,89.7754 130.443,100.109 126,122.5C 122.168,131.488 115.335,135.822 105.5,135.5C 91.1667,135.167 83.8333,127.833 83.5,113.5C 83.0715,102.33 88.0715,94.997 98.5,91.5 Z M 103.5,99.5 C 112.098,100.104 116.098,104.771 115.5,113.5C 115.64,124.211 110.64,128.378 100.5,126C 94.6329,119.63 93.4662,112.464 97,104.5C 98.8049,102.174 100.972,100.508 103.5,99.5 Z"/></g>
<g><path style="opacity:0.929" fill="#0b9443" d="M 137.5,91.5 C 139.857,91.3367 142.19,91.5034 144.5,92C 145.155,93.4866 146.155,94.6533 147.5,95.5C 155.8,89.9232 163.8,90.2565 171.5,96.5C 178.591,90.8801 186.257,90.0468 194.5,94C 196.317,95.7998 197.484,97.9664 198,100.5C 198.811,111.547 198.644,122.547 197.5,133.5C 193.637,136.381 190.137,136.048 187,132.5C 186.667,123.167 186.333,113.833 186,104.5C 185.681,101.514 184.014,99.8473 181,99.5C 177.941,100.192 175.608,101.859 174,104.5C 172.842,114.124 172.176,123.791 172,133.5C 169.503,135.478 166.669,135.978 163.5,135C 162.299,134.097 161.465,132.931 161,131.5C 160.667,121.833 160.333,112.167 160,102.5C 157.364,99.0532 154.197,98.5532 150.5,101C 149.283,102.648 148.45,104.481 148,106.5C 147.945,115.601 147.278,124.601 146,133.5C 142.667,136.167 139.333,136.167 136,133.5C 135.333,120.167 135.333,106.833 136,93.5C 136.717,92.9558 137.217,92.2891 137.5,91.5 Z"/></g>
<g><path style="opacity:0.908" fill="#0b9443" d="M 365.5,91.5 C 371.577,91.1959 377.577,91.6959 383.5,93C 388.766,95.2284 390.933,99.0618 390,104.5C 384.971,107.58 381.138,106.413 378.5,101C 373.393,97.3668 369.06,98.0335 365.5,103C 366.579,105.043 368.246,106.376 370.5,107C 378.125,108.092 384.958,110.926 391,115.5C 394.541,123.782 392.374,129.949 384.5,134C 378.251,135.536 371.917,135.87 365.5,135C 357.747,133.601 354.247,129.101 355,121.5C 357.153,119.556 359.653,119.056 362.5,120C 366.213,127.623 371.88,129.79 379.5,126.5C 382.044,124.389 382.044,122.222 379.5,120C 373.5,118 367.5,116 361.5,114C 352.672,107.819 352.338,101.153 360.5,94C 362.315,93.2432 363.981,92.4098 365.5,91.5 Z"/></g>
<g><path style="opacity:0.832" fill="#0b9443" d="M 86.5,152.5 C 87.552,152.351 88.552,152.517 89.5,153C 90.102,155.036 91.102,156.87 92.5,158.5C 90.7397,161.212 90.073,164.212 90.5,167.5C 94.4221,168.117 94.4221,168.784 90.5,169.5C 89.2284,169.43 88.0617,169.097 87,168.5C 86.9632,164.911 86.1299,161.578 84.5,158.5C 86.1045,156.821 86.7711,154.821 86.5,152.5 Z"/></g>
<g><path style="opacity:0.779" fill="#0b9443" d="M 139.5,152.5 C 140.5,152.5 141.5,152.5 142.5,152.5C 142.5,154.167 142.5,155.833 142.5,157.5C 146.5,158.167 146.5,158.833 142.5,159.5C 142.337,161.857 142.503,164.19 143,166.5C 144.011,167.337 145.178,167.67 146.5,167.5C 146.5,162.5 146.5,157.5 146.5,152.5C 147.833,152.5 149.167,152.5 150.5,152.5C 150.5,154.167 150.5,155.833 150.5,157.5C 153.119,157.232 155.619,157.565 158,158.5C 158.499,162.152 158.665,165.818 158.5,169.5C 157.178,169.67 156.011,169.337 155,168.5C 154.899,165.3 154.232,162.3 153,159.5C 150.714,162.365 149.88,165.698 150.5,169.5C 146.563,169.793 142.73,169.46 139,168.5C 138.963,164.911 138.13,161.578 136.5,158.5C 138.043,156.747 139.043,154.747 139.5,152.5 Z"/></g>
<g><path style="opacity:0.65" fill="#0b9443" d="M 192.5,152.5 C 193.833,152.5 195.167,152.5 196.5,152.5C 196.5,153.5 196.5,154.5 196.5,155.5C 195.167,155.5 193.833,155.5 192.5,155.5C 192.5,154.5 192.5,153.5 192.5,152.5 Z"/></g>
<g><path style="opacity:0.793" fill="#0b9443" d="M 218.5,152.5 C 221.91,152.384 223.244,154.05 222.5,157.5C 229.849,156.188 232.683,159.188 231,166.5C 230.5,167.667 229.667,168.5 228.5,169C 225.018,169 221.684,169.167 218.5,169.5C 218.5,163.833 218.5,158.167 218.5,152.5 Z M 224.5,159.5 C 228.255,161.877 228.421,164.544 225,167.5C 221.878,164.985 221.712,162.318 224.5,159.5 Z"/></g>
<g><path style="opacity:0.807" fill="#0b9443" d="M 264.5,167.5 C 263.848,168.725 262.681,169.392 261,169.5C 259.833,169.333 258.667,169.167 257.5,169C 256.549,165.943 256.216,162.777 256.5,159.5C 255.167,159.5 253.833,159.5 252.5,159.5C 252.5,162.167 252.5,164.833 252.5,167.5C 256.422,168.117 256.422,168.784 252.5,169.5C 251.228,169.43 250.062,169.097 249,168.5C 248.963,164.911 248.13,161.578 246.5,158.5C 248.104,156.821 248.771,154.821 248.5,152.5C 251.91,152.384 253.244,154.05 252.5,157.5C 253.833,157.5 255.167,157.5 256.5,157.5C 255.756,154.05 257.09,152.384 260.5,152.5C 260.5,154.167 260.5,155.833 260.5,157.5C 264.5,158.167 264.5,158.833 260.5,159.5C 260.337,161.857 260.503,164.19 261,166.5C 262.011,167.337 263.178,167.67 264.5,167.5 Z"/></g>
<g><path style="opacity:1" fill="#ecf4ec" d="M 8.5,155.5 C 11.2724,155.22 13.7724,155.887 16,157.5C 16.5908,158.483 16.2575,159.15 15,159.5C 13.4329,158.144 11.5996,157.477 9.5,157.5C 9.5,158.5 9.5,159.5 9.5,160.5C 14.551,160.4 16.7176,162.733 16,167.5C 12.9253,170.059 9.92533,170.059 7,167.5C 6.80732,163.74 7.64065,163.574 9.5,167C 10.7932,167.49 12.1266,167.657 13.5,167.5C 13.5,166.167 13.5,164.833 13.5,163.5C 6.65615,163.695 4.98949,161.029 8.5,155.5 Z"/></g>
<g><path style="opacity:1" fill="#e8f2e8" d="M 22.5,155.5 C 23.8221,155.33 24.9887,155.663 26,156.5C 27.5,160.333 29,164.167 30.5,168C 29.407,169.817 28.407,169.65 27.5,167.5C 25.2573,166.526 22.924,166.192 20.5,166.5C 20.5,167.5 20.5,168.5 20.5,169.5C 19.5,169.5 18.5,169.5 17.5,169.5C 18.7705,164.688 20.4371,160.022 22.5,155.5 Z"/></g>
<g><path style="opacity:1" fill="#ecf4ec" d="M 34.5,155.5 C 38.3872,154.945 41.3872,156.279 43.5,159.5C 43.1667,159.833 42.8333,160.167 42.5,160.5C 41.0715,159.065 39.4048,158.065 37.5,157.5C 36.5581,157.608 35.7247,157.941 35,158.5C 34.2228,161.429 34.3895,164.263 35.5,167C 38.3434,167.915 40.5101,167.081 42,164.5C 43.3636,166.603 42.5302,168.103 39.5,169C 32.6248,169.448 30.1248,166.282 32,159.5C 32.6622,158.016 33.4955,156.683 34.5,155.5 Z"/></g>
<g><path style="opacity:1" fill="#f5f9f5" d="M 49.5,155.5 C 52.7123,155.106 55.0456,156.272 56.5,159C 56.1667,159.5 55.8333,160 55.5,160.5C 53.4005,157.016 50.9005,156.682 48,159.5C 46.1747,164.986 48.0081,167.486 53.5,167C 54.0465,166.075 54.7132,165.242 55.5,164.5C 56.9004,166.782 56.2337,168.282 53.5,169C 50.3201,170.036 47.8201,169.203 46,166.5C 44.518,161.774 45.6847,158.107 49.5,155.5 Z"/></g>
<g><path style="opacity:1" fill="#eef5ee" d="M 62.5,155.5 C 70.379,155.216 73.2123,158.883 71,166.5C 62.3333,172.167 58.3333,169.833 59,159.5C 59.6897,157.65 60.8564,156.316 62.5,155.5 Z"/></g>
<g><path style="opacity:1" fill="#2b994d" d="M 63.5,157.5 C 69.5477,158.46 70.8811,161.627 67.5,167C 62.0081,167.486 60.1747,164.986 62,159.5C 62.7172,158.956 63.2172,158.289 63.5,157.5 Z"/></g>
<g><path style="opacity:0.762" fill="#0b9443" d="M 96.5,157.5 C 104.321,155.833 107.821,158.833 107,166.5C 103.269,170.05 99.2685,170.383 95,167.5C 93.254,163.882 93.754,160.548 96.5,157.5 Z M 99.5,159.5 C 104.341,161.544 104.675,164.211 100.5,167.5C 98.2251,165.168 97.8918,162.502 99.5,159.5 Z"/></g>
<g><path style="opacity:0.793" fill="#0b9443" d="M 110.5,157.5 C 114.329,157.927 117.996,157.927 121.5,157.5C 121.666,162.511 121.499,167.511 121,172.5C 118.159,174.504 114.993,175.004 111.5,174C 107.831,172.075 107.831,170.408 111.5,169C 107.849,165.56 107.516,161.727 110.5,157.5 Z M 114.5,159.5 C 118.23,161.883 118.397,164.549 115,167.5C 111.868,164.987 111.701,162.32 114.5,159.5 Z M 112.5,169.5 C 114.288,169.215 115.955,169.548 117.5,170.5C 115.203,173.29 113.536,172.956 112.5,169.5 Z"/></g>
<g><path style="opacity:0.812" fill="#0b9443" d="M 126.5,157.5 C 131.393,156.314 134.727,157.981 136.5,162.5C 136.291,163.086 135.957,163.586 135.5,164C 132.774,164.182 130.107,164.682 127.5,165.5C 128.328,166.415 129.328,167.081 130.5,167.5C 131.85,166.05 133.516,165.383 135.5,165.5C 135.67,166.822 135.337,167.989 134.5,169C 125.658,171.363 122.158,168.196 124,159.5C 124.995,158.934 125.828,158.267 126.5,157.5 Z M 128.5,159.5 C 133.965,162.225 133.632,162.892 127.5,161.5C 127.863,160.817 128.196,160.15 128.5,159.5 Z"/></g>
<g><path style="opacity:0.8" fill="#0b9443" d="M 163.5,157.5 C 166.649,157.211 169.649,157.711 172.5,159C 173.406,160.699 173.739,162.533 173.5,164.5C 170.482,164.335 167.482,164.502 164.5,165C 166.678,167.879 169.178,168.045 172,165.5C 173.726,166.648 173.559,167.815 171.5,169C 160.923,170.284 158.256,166.45 163.5,157.5 Z M 166.5,159.5 C 167.995,159.415 168.995,160.081 169.5,161.5C 167.926,162.631 166.259,162.798 164.5,162C 165.381,161.292 166.047,160.458 166.5,159.5 Z"/></g>
<g><path style="opacity:0.748" fill="#0b9443" d="M 175.5,157.5 C 178.898,157.18 182.232,157.513 185.5,158.5C 183.687,159.635 181.854,160.635 180,161.5C 179.503,164.146 179.336,166.813 179.5,169.5C 178.167,169.5 176.833,169.5 175.5,169.5C 175.5,165.5 175.5,161.5 175.5,157.5 Z"/></g>
<g><path style="opacity:0.771" fill="#0b9443" d="M 192.5,157.5 C 193.833,157.5 195.167,157.5 196.5,157.5C 196.5,161.5 196.5,165.5 196.5,169.5C 195.167,169.5 193.833,169.5 192.5,169.5C 192.5,165.5 192.5,161.5 192.5,157.5 Z"/></g>
<g><path style="opacity:0.751" fill="#0b9443" d="M 205.5,161.5 C 209.388,162.686 210.388,165.186 208.5,169C 205.5,169.667 202.5,169.667 199.5,169C 197.957,166.955 198.29,165.455 200.5,164.5C 198.424,162.631 198.091,160.464 199.5,158C 202.167,157.333 204.833,157.333 207.5,158C 210.194,160.552 209.527,161.719 205.5,161.5 Z M 205.5,161.5 C 204.325,161.719 203.325,161.386 202.5,160.5C 203.86,159.335 204.86,159.668 205.5,161.5 Z M 200.5,164.5 C 202.665,164.116 204.332,164.783 205.5,166.5C 203.422,167.307 201.755,166.641 200.5,164.5 Z"/></g>
<g><path style="opacity:0.8" fill="#0b9443" d="M 235.5,157.5 C 238.649,157.211 241.649,157.711 244.5,159C 245.406,160.699 245.739,162.533 245.5,164.5C 242.482,164.335 239.482,164.502 236.5,165C 238.678,167.879 241.178,168.045 244,165.5C 245.726,166.648 245.559,167.815 243.5,169C 232.923,170.284 230.256,166.45 235.5,157.5 Z M 238.5,159.5 C 239.995,159.415 240.995,160.081 241.5,161.5C 239.926,162.631 238.259,162.798 236.5,162C 237.381,161.292 238.047,160.458 238.5,159.5 Z"/></g>
<g><path style="opacity:0.812" fill="#0b9443" d="M 264.5,167.5 C 262.853,159.151 266.186,155.984 274.5,158C 276.701,159.684 277.367,161.684 276.5,164C 273.774,164.182 271.107,164.682 268.5,165.5C 269.328,166.415 270.328,167.081 271.5,167.5C 272.85,166.05 274.516,165.383 276.5,165.5C 276.67,166.822 276.337,167.989 275.5,169C 271.598,169.888 267.931,169.388 264.5,167.5 Z M 269.5,159.5 C 274.965,162.225 274.632,162.892 268.5,161.5C 268.863,160.817 269.196,160.15 269.5,159.5 Z"/></g>
<g><path style="opacity:0.792" fill="#0b9443" d="M 279.5,157.5 C 282.5,157.5 285.5,157.5 288.5,157.5C 288.5,158.5 288.5,159.5 288.5,160.5C 287.178,160.67 286.011,160.337 285,159.5C 283.768,162.3 283.101,165.3 283,168.5C 281.989,169.337 280.822,169.67 279.5,169.5C 279.5,165.5 279.5,161.5 279.5,157.5 Z"/></g>
<g><path style="opacity:1" fill="#3e9f57" d="M 23.5,159.5 C 25.2132,160.635 25.8799,162.302 25.5,164.5C 24.5,164.5 23.5,164.5 22.5,164.5C 22.366,162.708 22.6993,161.042 23.5,159.5 Z"/></g>
</svg>
