<?xml version="1.0" encoding="UTF-8"?>
<!DOCTYPE svg PUBLIC "-//W3C//DTD SVG 1.1//EN" "http://www.w3.org/Graphics/SVG/1.1/DTD/svg11.dtd">
<svg xmlns="http://www.w3.org/2000/svg" version="1.1" width="400px" height="400px" style="shape-rendering:geometricPrecision; text-rendering:geometricPrecision; image-rendering:optimizeQuality; fill-rule:evenodd; clip-rule:evenodd" xmlns:xlink="http://www.w3.org/1999/xlink">
<g><path style="opacity:1" fill="#263f8d" d="M 210.5,7.5 C 207.813,7.33591 205.146,7.50258 202.5,8C 204.43,13.8737 205.097,20.0404 204.5,26.5C 195.452,26.5796 186.452,27.2463 177.5,28.5C 177.5,22.5 177.5,16.5 177.5,10.5C 175.833,10.5 174.167,10.5 172.5,10.5C 185.033,7.32985 197.7,6.32985 210.5,7.5 Z"/></g>
<g><path style="opacity:0.999" fill="#293990" d="M 210.5,7.5 C 216.404,7.32126 222.071,7.98792 227.5,9.5C 230.589,10.7846 233.922,11.4512 237.5,11.5C 241.116,11.8993 244.45,12.8993 247.5,14.5C 249.792,16.2671 252.458,17.2671 255.5,17.5C 256.492,17.3284 257.158,17.6618 257.5,18.5C 317.815,49.454 343.649,98.7873 335,166.5C 318.841,227.993 279.341,263.493 216.5,273C 209.842,273.5 203.175,273.666 196.5,273.5C 195.081,272.549 193.415,272.216 191.5,272.5C 191.5,267.5 191.5,262.5 191.5,257.5C 250.095,259.479 290.262,233.479 312,179.5C 327.087,125.43 312.587,81.2637 268.5,47C 249.16,34.0539 227.827,27.2206 204.5,26.5C 205.097,20.0404 204.43,13.8737 202.5,8C 205.146,7.50258 207.813,7.33591 210.5,7.5 Z"/></g>
<g><path style="opacity:0.005" fill="#000000" d="M 227.5,9.5 C 231.122,9.32198 234.456,9.98864 237.5,11.5C 233.922,11.4512 230.589,10.7846 227.5,9.5 Z"/></g>
<g><path style="opacity:0.995" fill="#234e9d" d="M 172.5,10.5 C 174.167,10.5 175.833,10.5 177.5,10.5C 177.5,16.5 177.5,22.5 177.5,28.5C 170.522,30.6037 163.522,32.937 156.5,35.5C 156.5,28.8333 156.5,22.1667 156.5,15.5C 158.698,15.8799 160.365,15.2132 161.5,13.5C 164.228,13.8294 166.562,13.1628 168.5,11.5C 169.568,10.5655 170.901,10.2322 172.5,10.5 Z"/></g>
<g><path style="opacity:0.38" fill="#192340" d="M 168.5,11.5 C 166.562,13.1628 164.228,13.8294 161.5,13.5C 163.515,12.0762 165.848,11.4095 168.5,11.5 Z"/></g>
<g><path style="opacity:0.006" fill="#000000" d="M 247.5,14.5 C 250.542,14.7329 253.208,15.7329 255.5,17.5C 252.458,17.2671 249.792,16.2671 247.5,14.5 Z"/></g>
<g><path style="opacity:0.006" fill="#000000" d="M 152.5,16.5 C 150.574,18.2927 148.241,19.2927 145.5,19.5C 147.426,17.7073 149.759,16.7073 152.5,16.5 Z"/></g>
<g><path style="opacity:0.19" fill="#000001" d="M 257.5,18.5 C 301.875,37.7255 329.375,71.0588 340,118.5C 348.94,184.112 325.107,233.612 268.5,267C 212.058,292.838 159.391,286.838 110.5,249C 65.6354,206.042 52.802,154.875 72,95.5C 83.5802,65.7718 103.08,43.1051 130.5,27.5C 130.167,28.1667 129.833,28.8333 129.5,29.5C 120.034,34.7836 111.534,41.4503 104,49.5C 103.536,50.0944 103.369,50.7611 103.5,51.5C 83.9985,71.8449 72.4985,96.1782 69,124.5C 65.6235,155.357 71.9569,184.024 88,210.5C 89.6971,213.02 91.5305,215.353 93.5,217.5C 97.214,223.393 101.547,228.893 106.5,234C 113.132,240.808 120.465,246.641 128.5,251.5C 135.949,256.558 143.949,260.558 152.5,263.5C 166.339,269.957 181.005,273.291 196.5,273.5C 203.175,273.666 209.842,273.5 216.5,273C 279.341,263.493 318.841,227.993 335,166.5C 343.649,98.7873 317.815,49.454 257.5,18.5 Z"/></g>
<g><path style="opacity:0.006" fill="#000000" d="M 143.5,20.5 C 139.334,23.0841 135,25.4174 130.5,27.5C 134.071,23.8793 138.404,21.546 143.5,20.5 Z"/></g>
<g><path style="opacity:1" fill="#fefefe" d="M 204.5,26.5 C 227.827,27.2206 249.16,34.0539 268.5,47C 312.587,81.2637 327.087,125.43 312,179.5C 290.262,233.479 250.095,259.479 191.5,257.5C 178.243,256.353 165.576,253.019 153.5,247.5C 145.2,243.015 137.2,238.015 129.5,232.5C 113.605,219.259 101.938,202.925 94.5,183.5C 81.3414,146.753 85.0081,111.753 105.5,78.5C 113.427,67.9041 122.427,58.2375 132.5,49.5C 140.207,44.3136 148.207,39.647 156.5,35.5C 163.522,32.937 170.522,30.6037 177.5,28.5C 186.452,27.2463 195.452,26.5796 204.5,26.5 Z"/></g>
<g><path style="opacity:1" fill="#2059a4" d="M 161.5,13.5 C 160.365,15.2132 158.698,15.8799 156.5,15.5C 156.5,22.1667 156.5,28.8333 156.5,35.5C 148.207,39.647 140.207,44.3136 132.5,49.5C 132.15,42.6046 131.15,35.9379 129.5,29.5C 129.833,28.8333 130.167,28.1667 130.5,27.5C 135,25.4174 139.334,23.0841 143.5,20.5C 143.842,19.6618 144.508,19.3284 145.5,19.5C 148.241,19.2927 150.574,18.2927 152.5,16.5C 155.215,14.9281 158.215,13.9281 161.5,13.5 Z"/></g>
<g><path style="opacity:0.999" fill="#2364ad" d="M 129.5,29.5 C 131.15,35.9379 132.15,42.6046 132.5,49.5C 122.427,58.2375 113.427,67.9041 105.5,78.5C 104.833,69.5 104.167,60.5 103.5,51.5C 103.369,50.7611 103.536,50.0944 104,49.5C 111.534,41.4503 120.034,34.7836 129.5,29.5 Z"/></g>
<g><path style="opacity:1" fill="#176fb6" d="M 103.5,51.5 C 104.167,60.5 104.833,69.5 105.5,78.5C 85.0081,111.753 81.3414,146.753 94.5,183.5C 93.5052,194.654 93.1719,205.988 93.5,217.5C 91.5305,215.353 89.6971,213.02 88,210.5C 71.9569,184.024 65.6235,155.357 69,124.5C 72.4985,96.1782 83.9985,71.8449 103.5,51.5 Z"/></g>
<g><path style="opacity:1" fill="#ee2c2e" d="M 291.5,83.5 C 297.263,83.7827 298.93,86.616 296.5,92C 289.416,92.475 287.749,89.6417 291.5,83.5 Z"/></g>
<g><path style="opacity:1" fill="#ccc9e2" d="M 224.5,125.5 C 223.078,124.075 221.411,123.075 219.5,122.5C 219.663,120.143 219.497,117.81 219,115.5C 212.1,113.915 209.933,116.581 212.5,123.5C 210.738,124.262 209.738,125.596 209.5,127.5C 208.5,128.167 207.5,128.833 206.5,129.5C 206.5,120.5 206.5,111.5 206.5,102.5C 212.5,102.5 218.5,102.5 224.5,102.5C 224.5,110.167 224.5,117.833 224.5,125.5 Z"/></g>
<g><path style="opacity:1" fill="#c9c9e3" d="M 156.5,147.5 C 156.167,147.5 155.833,147.5 155.5,147.5C 154.685,146.163 153.518,145.163 152,144.5C 151.79,142.942 151.29,141.609 150.5,140.5C 150.586,139.504 150.252,138.671 149.5,138C 147.833,137.333 146.167,137.333 144.5,138C 143.549,141.057 143.216,144.223 143.5,147.5C 142.094,147.973 141.427,148.973 141.5,150.5C 140.833,150.833 140.167,151.167 139.5,151.5C 139.5,137.5 139.5,123.5 139.5,109.5C 145.167,109.5 150.833,109.5 156.5,109.5C 156.5,122.167 156.5,134.833 156.5,147.5 Z"/></g>
<g><path style="opacity:1" fill="#cacbe4" d="M 261.5,140.5 C 261.5,140.833 261.5,141.167 261.5,141.5C 259.75,142.659 258.75,144.326 258.5,146.5C 256.75,147.659 255.75,149.326 255.5,151.5C 253.833,151.5 252.167,151.5 250.5,151.5C 247.236,149.906 244.569,147.573 242.5,144.5C 242.5,132.5 242.5,120.5 242.5,108.5C 248.5,108.5 254.5,108.5 260.5,108.5C 260.172,119.346 260.506,130.013 261.5,140.5 Z"/></g>
<g><path style="opacity:1" fill="#e68787" d="M 280.5,108.5 C 281.713,109.497 281.546,110.497 280,111.5C 279.53,110.423 279.697,109.423 280.5,108.5 Z"/></g>
<g><path style="opacity:1" fill="#ea282d" d="M 219.5,122.5 C 218.508,122.328 217.842,122.662 217.5,123.5C 215.833,123.5 214.167,123.5 212.5,123.5C 209.933,116.581 212.1,113.915 219,115.5C 219.497,117.81 219.663,120.143 219.5,122.5 Z"/></g>
<g><path style="opacity:1" fill="#e68383" d="M 275.5,118.5 C 275.795,116.577 276.628,114.91 278,113.5C 278.249,115.668 277.416,117.335 275.5,118.5 Z"/></g>
<g><path style="opacity:1" fill="#e47a7a" d="M 275.5,118.5 C 275.539,119.756 275.039,120.756 274,121.5C 273.415,120.002 273.915,119.002 275.5,118.5 Z"/></g>
<g><path style="opacity:1" fill="#c8c9e3" d="M 212.5,123.5 C 214.167,123.5 215.833,123.5 217.5,123.5C 220.089,124.419 222.089,126.086 223.5,128.5C 223.5,153.167 223.5,177.833 223.5,202.5C 218.5,202.5 213.5,202.5 208.5,202.5C 209.565,178.336 209.565,154.336 208.5,130.5C 209.11,129.609 209.443,128.609 209.5,127.5C 211.262,126.738 212.262,125.404 212.5,123.5 Z"/></g>
<g><path style="opacity:1" fill="#e37574" d="M 271.5,123.5 C 272.713,124.497 272.546,125.497 271,126.5C 270.53,125.423 270.697,124.423 271.5,123.5 Z"/></g>
<g><path style="opacity:1" fill="#d0464a" d="M 212.5,123.5 C 212.262,125.404 211.262,126.738 209.5,127.5C 209.738,125.596 210.738,124.262 212.5,123.5 Z"/></g>
<g><path style="opacity:1" fill="#c9c8e2" d="M 190.5,151.5 C 188.72,154.454 186.72,157.287 184.5,160C 182.444,160.311 180.444,160.811 178.5,161.5C 176.581,160.388 174.914,159.054 173.5,157.5C 173.5,148.167 173.5,138.833 173.5,129.5C 179.167,129.5 184.833,129.5 190.5,129.5C 190.5,136.833 190.5,144.167 190.5,151.5 Z"/></g>
<g><path style="opacity:1" fill="#e27371" d="M 268.5,128.5 C 269.713,129.497 269.546,130.497 268,131.5C 267.53,130.423 267.697,129.423 268.5,128.5 Z"/></g>
<g><path style="opacity:1" fill="#d3d9ee" d="M 223.5,128.5 C 224.167,128.5 224.5,128.833 224.5,129.5C 224.5,154.167 224.5,178.833 224.5,203.5C 218.5,203.5 212.5,203.5 206.5,203.5C 206.5,180.167 206.5,156.833 206.5,133.5C 206.932,132.29 207.599,131.29 208.5,130.5C 209.565,154.336 209.565,178.336 208.5,202.5C 213.5,202.5 218.5,202.5 223.5,202.5C 223.5,177.833 223.5,153.167 223.5,128.5 Z"/></g>
<g><path style="opacity:1" fill="#e2706f" d="M 265.5,133.5 C 266.713,134.497 266.546,135.497 265,136.5C 264.53,135.423 264.697,134.423 265.5,133.5 Z"/></g>
<g><path style="opacity:1" fill="#eb292d" d="M 150.5,140.5 C 150.634,142.292 150.301,143.958 149.5,145.5C 147.626,146.285 145.626,146.952 143.5,147.5C 143.216,144.223 143.549,141.057 144.5,138C 146.167,137.333 147.833,137.333 149.5,138C 150.252,138.671 150.586,139.504 150.5,140.5 Z"/></g>
<g><path style="opacity:1" fill="#da6566" d="M 217.5,123.5 C 217.842,122.662 218.508,122.328 219.5,122.5C 221.411,123.075 223.078,124.075 224.5,125.5C 229.797,132.464 235.797,138.798 242.5,144.5C 244.569,147.573 247.236,149.906 250.5,151.5C 250.167,152.5 249.5,153.167 248.5,153.5C 246.833,151.167 244.833,149.167 242.5,147.5C 236.833,141.167 230.833,135.167 224.5,129.5C 224.5,128.833 224.167,128.5 223.5,128.5C 222.089,126.086 220.089,124.419 217.5,123.5 Z"/></g>
<g><path style="opacity:1" fill="#e16e6c" d="M 261.5,141.5 C 261.5,141.167 261.5,140.833 261.5,140.5C 261.976,138.934 262.643,138.6 263.5,139.5C 263.145,140.522 262.478,141.189 261.5,141.5 Z"/></g>
<g><path style="opacity:1" fill="#d85f62" d="M 261.5,141.5 C 261.107,143.284 260.441,144.95 259.5,146.5C 259.167,146.5 258.833,146.5 258.5,146.5C 258.75,144.326 259.75,142.659 261.5,141.5 Z"/></g>
<g><path style="opacity:1" fill="#d45a64" d="M 150.5,140.5 C 151.29,141.609 151.79,142.942 152,144.5C 153.518,145.163 154.685,146.163 155.5,147.5C 153.5,146.833 151.5,146.167 149.5,145.5C 150.301,143.958 150.634,142.292 150.5,140.5 Z"/></g>
<g><path style="opacity:1" fill="#d84f4f" d="M 209.5,127.5 C 209.443,128.609 209.11,129.609 208.5,130.5C 207.599,131.29 206.932,132.29 206.5,133.5C 201.833,139.167 197.167,144.833 192.5,150.5C 197.167,143.5 201.833,136.5 206.5,129.5C 207.5,128.833 208.5,128.167 209.5,127.5 Z"/></g>
<g><path style="opacity:1" fill="#cacce5" d="M 149.5,145.5 C 151.5,146.167 153.5,146.833 155.5,147.5C 155.833,148.167 156.167,148.833 156.5,149.5C 156.5,166.833 156.5,184.167 156.5,201.5C 150.5,201.5 144.5,201.5 138.5,201.5C 138.667,186.83 138.5,172.163 138,157.5C 137.617,158.056 137.117,158.389 136.5,158.5C 136.328,157.508 136.662,156.842 137.5,156.5C 138.906,156.027 139.573,155.027 139.5,153.5C 140.906,153.027 141.573,152.027 141.5,150.5C 142.906,150.027 143.573,149.027 143.5,147.5C 145.626,146.952 147.626,146.285 149.5,145.5 Z"/></g>
<g><path style="opacity:1" fill="#df6664" d="M 155.5,147.5 C 155.833,147.5 156.167,147.5 156.5,147.5C 157.5,147.833 158.167,148.5 158.5,149.5C 157.833,149.5 157.167,149.5 156.5,149.5C 156.167,148.833 155.833,148.167 155.5,147.5 Z"/></g>
<g><path style="opacity:1" fill="#cf575e" d="M 258.5,146.5 C 258.25,148.674 257.25,150.341 255.5,151.5C 255.75,149.326 256.75,147.659 258.5,146.5 Z"/></g>
<g><path style="opacity:1" fill="#c9c9e3" d="M 258.5,146.5 C 258.833,146.5 259.167,146.5 259.5,146.5C 259.5,165.5 259.5,184.5 259.5,203.5C 253.833,203.5 248.167,203.5 242.5,203.5C 242.5,184.833 242.5,166.167 242.5,147.5C 244.833,149.167 246.833,151.167 248.5,153.5C 246.762,158.933 248.762,161.099 254.5,160C 255.444,157.281 255.777,154.448 255.5,151.5C 257.25,150.341 258.25,148.674 258.5,146.5 Z"/></g>
<g><path style="opacity:1" fill="#d0636a" d="M 143.5,147.5 C 143.573,149.027 142.906,150.027 141.5,150.5C 141.427,148.973 142.094,147.973 143.5,147.5 Z"/></g>
<g><path style="opacity:1" fill="#d16066" d="M 141.5,150.5 C 141.573,152.027 140.906,153.027 139.5,153.5C 139.5,152.833 139.5,152.167 139.5,151.5C 140.167,151.167 140.833,150.833 141.5,150.5 Z"/></g>
<g><path style="opacity:1" fill="#eb2a2e" d="M 250.5,151.5 C 252.167,151.5 253.833,151.5 255.5,151.5C 255.777,154.448 255.444,157.281 254.5,160C 248.762,161.099 246.762,158.933 248.5,153.5C 249.5,153.167 250.167,152.5 250.5,151.5 Z"/></g>
<g><path style="opacity:1" fill="#de6261" d="M 158.5,149.5 C 162.683,151.087 166.35,153.421 169.5,156.5C 165.317,154.913 161.65,152.579 158.5,149.5 Z"/></g>
<g><path style="opacity:1" fill="#da6c6f" d="M 139.5,153.5 C 139.573,155.027 138.906,156.027 137.5,156.5C 137.427,154.973 138.094,153.973 139.5,153.5 Z"/></g>
<g><path style="opacity:1" fill="#cacbe4" d="M 190.5,155.5 C 190.5,171.167 190.5,186.833 190.5,202.5C 184.5,202.5 178.5,202.5 172.5,202.5C 172.5,188.167 172.5,173.833 172.5,159.5C 176.565,160.618 178.732,163.284 179,167.5C 181.12,170.08 183.287,170.08 185.5,167.5C 186.833,165.5 186.833,163.5 185.5,161.5C 186.709,159.059 188.376,157.059 190.5,155.5 Z"/></g>
<g><path style="opacity:1" fill="#e27171" d="M 136.5,158.5 C 136.573,160.027 135.906,161.027 134.5,161.5C 134.427,159.973 135.094,158.973 136.5,158.5 Z"/></g>
<g><path style="opacity:1" fill="#e43638" d="M 192.5,150.5 C 191.833,152.167 191.167,153.833 190.5,155.5C 188.376,157.059 186.709,159.059 185.5,161.5C 186.833,163.5 186.833,165.5 185.5,167.5C 183.287,170.08 181.12,170.08 179,167.5C 178.732,163.284 176.565,160.618 172.5,159.5C 171.306,158.728 170.306,157.728 169.5,156.5C 170.833,156.833 172.167,157.167 173.5,157.5C 174.914,159.054 176.581,160.388 178.5,161.5C 180.444,160.811 182.444,160.311 184.5,160C 186.72,157.287 188.72,154.454 190.5,151.5C 191.167,151.167 191.833,150.833 192.5,150.5 Z"/></g>
<g><path style="opacity:1" fill="#e47c7d" d="M 134.5,161.5 C 134.573,163.027 133.906,164.027 132.5,164.5C 132.427,162.973 133.094,161.973 134.5,161.5 Z"/></g>
<g><path style="opacity:1" fill="#e37777" d="M 132.5,164.5 C 132.573,166.027 131.906,167.027 130.5,167.5C 130.427,165.973 131.094,164.973 132.5,164.5 Z"/></g>
<g><path style="opacity:1" fill="#e47d7c" d="M 130.5,167.5 C 130.539,168.756 130.039,169.756 129,170.5C 128.415,169.002 128.915,168.002 130.5,167.5 Z"/></g>
<g><path style="opacity:1" fill="#e57e7e" d="M 126.5,172.5 C 127.713,173.497 127.546,174.497 126,175.5C 125.53,174.423 125.697,173.423 126.5,172.5 Z"/></g>
<g><path style="opacity:1" fill="#2265ae" d="M 94.5,183.5 C 101.938,202.925 113.605,219.259 129.5,232.5C 128.51,238.645 128.177,244.978 128.5,251.5C 120.465,246.641 113.132,240.808 106.5,234C 101.547,228.893 97.214,223.393 93.5,217.5C 93.1719,205.988 93.5052,194.654 94.5,183.5 Z"/></g>
<g><path style="opacity:1" fill="#215aa5" d="M 129.5,232.5 C 137.2,238.015 145.2,243.015 153.5,247.5C 152.512,252.64 152.179,257.974 152.5,263.5C 143.949,260.558 135.949,256.558 128.5,251.5C 128.177,244.978 128.51,238.645 129.5,232.5 Z"/></g>
<g><path style="opacity:1" fill="#244c9b" d="M 153.5,247.5 C 165.576,253.019 178.243,256.353 191.5,257.5C 191.5,262.5 191.5,267.5 191.5,272.5C 193.415,272.216 195.081,272.549 196.5,273.5C 181.005,273.291 166.339,269.957 152.5,263.5C 152.179,257.974 152.512,252.64 153.5,247.5 Z"/></g>
<g><path style="opacity:0.873" fill="#273a92" d="M 30.5,297.5 C 30.5,293.833 30.5,290.167 30.5,286.5C 40.8651,284.579 50.8651,285.745 60.5,290C 61.7087,293.774 60.7087,296.941 57.5,299.5C 48.7797,295.06 39.7797,294.393 30.5,297.5 Z"/></g>
<g><path style="opacity:1" fill="#1d68b2" d="M 82.5,287.5 C 82.5,307.167 82.5,326.833 82.5,346.5C 81.1286,347.787 79.2953,348.453 77,348.5C 74.9063,348.464 72.9063,348.131 71,347.5C 70.3333,327.833 70.3333,308.167 71,288.5C 74.73,287.54 78.5633,287.207 82.5,287.5 Z"/></g>
<g><path style="opacity:0.924" fill="#273891" d="M 93.5,287.5 C 114.42,285.673 122.587,295.006 118,315.5C 115.5,319.333 112.333,322.5 108.5,325C 112.52,332.566 115.853,340.399 118.5,348.5C 114.486,348.666 110.486,348.499 106.5,348C 103.187,340.538 99.52,333.371 95.5,326.5C 95.5,323.167 95.5,319.833 95.5,316.5C 102.698,316.912 106.698,313.578 107.5,306.5C 106.145,298.803 101.479,295.47 93.5,296.5C 93.5,293.5 93.5,290.5 93.5,287.5 Z"/></g>
<g><path style="opacity:1" fill="#1a6bb4" d="M 142.5,295.5 C 141.51,301.645 141.177,307.978 141.5,314.5C 140.59,312.981 139.757,311.315 139,309.5C 138.5,322.496 138.333,335.496 138.5,348.5C 134.833,348.5 131.167,348.5 127.5,348.5C 127.5,328.167 127.5,307.833 127.5,287.5C 131.555,287.176 135.555,287.509 139.5,288.5C 140.788,290.739 141.788,293.072 142.5,295.5 Z"/></g>
<g><path style="opacity:0.907" fill="#273891" d="M 157.5,343.5 C 157.5,338.5 157.5,333.5 157.5,328.5C 163.4,314.97 169.4,301.47 175.5,288C 179.423,287.207 183.256,287.374 187,288.5C 187.826,308.407 187.659,328.24 186.5,348C 184.833,348.167 183.167,348.333 181.5,348.5C 179.359,348.387 177.525,347.72 176,346.5C 175.667,334.833 175.333,323.167 175,311.5C 170.059,321.715 165.392,332.048 161,342.5C 159.989,343.337 158.822,343.67 157.5,343.5 Z"/></g>
<g><path style="opacity:0.998" fill="#1f5ca8" d="M 237.5,287.5 C 240.833,287.5 244.167,287.5 247.5,287.5C 247.5,290.5 247.5,293.5 247.5,296.5C 246.5,296.5 245.5,296.5 244.5,296.5C 244.5,302.167 244.5,307.833 244.5,313.5C 245.5,313.5 246.5,313.5 247.5,313.5C 247.5,316.5 247.5,319.5 247.5,322.5C 246.5,322.5 245.5,322.5 244.5,322.5C 244.5,328.167 244.5,333.833 244.5,339.5C 245.5,339.5 246.5,339.5 247.5,339.5C 247.5,342.5 247.5,345.5 247.5,348.5C 244.167,348.5 240.833,348.5 237.5,348.5C 237.5,328.167 237.5,307.833 237.5,287.5 Z"/></g>
<g><path style="opacity:0.967" fill="#273b92" d="M 247.5,287.5 C 256.839,287.334 266.173,287.5 275.5,288C 276.833,290.667 276.833,293.333 275.5,296C 266.173,296.5 256.839,296.666 247.5,296.5C 247.5,293.5 247.5,290.5 247.5,287.5 Z"/></g>
<g><path style="opacity:0.988" fill="#205faa" d="M 288.5,287.5 C 292.5,287.5 296.5,287.5 300.5,287.5C 300.5,290.5 300.5,293.5 300.5,296.5C 298.833,296.5 297.167,296.5 295.5,296.5C 295.5,303.167 295.5,309.833 295.5,316.5C 297.833,316.5 300.167,316.5 302.5,316.5C 302.5,319.833 302.5,323.167 302.5,326.5C 300.167,326.5 297.833,326.5 295.5,326.5C 295.666,333.508 295.5,340.508 295,347.5C 292.959,348.423 290.792,348.756 288.5,348.5C 288.5,328.167 288.5,307.833 288.5,287.5 Z"/></g>
<g><path style="opacity:0.927" fill="#273991" d="M 300.5,287.5 C 306.509,287.334 312.509,287.501 318.5,288C 323.712,289.017 327.545,291.851 330,296.5C 334.274,308.449 331.441,318.116 321.5,325.5C 324.803,333.097 327.803,340.764 330.5,348.5C 326.486,348.666 322.486,348.499 318.5,348C 315.601,341.142 312.601,334.309 309.5,327.5C 307.257,326.526 304.924,326.192 302.5,326.5C 302.5,323.167 302.5,319.833 302.5,316.5C 306.936,316.79 311.27,316.29 315.5,315C 320.455,309.975 320.788,304.641 316.5,299C 311.405,296.823 306.072,295.99 300.5,296.5C 300.5,293.5 300.5,290.5 300.5,287.5 Z"/></g>
<g><path style="opacity:1" fill="#1a6bb3" d="M 350.5,287.5 C 350.5,307.833 350.5,328.167 350.5,348.5C 346.894,348.789 343.394,348.456 340,347.5C 339.333,327.833 339.333,308.167 340,288.5C 343.394,287.544 346.894,287.211 350.5,287.5 Z"/></g>
<g><path style="opacity:0.981" fill="#2057a5" d="M 350.5,287.5 C 353.5,287.5 356.5,287.5 359.5,287.5C 359.5,290.5 359.5,293.5 359.5,296.5C 356.833,296.5 354.167,296.5 351.5,296.5C 351.5,303.833 351.5,311.167 351.5,318.5C 354.167,318.5 356.833,318.5 359.5,318.5C 359.5,321.833 359.5,325.167 359.5,328.5C 356.833,328.5 354.167,328.5 351.5,328.5C 351.824,335.354 351.491,342.021 350.5,348.5C 350.5,328.167 350.5,307.833 350.5,287.5 Z"/></g>
<g><path style="opacity:0.914" fill="#273991" d="M 359.5,287.5 C 381.984,284.813 391.151,294.48 387,316.5C 385.444,321.876 381.944,325.376 376.5,327C 370.899,328.217 365.232,328.717 359.5,328.5C 359.5,325.167 359.5,321.833 359.5,318.5C 372.381,320.454 377.548,315.121 375,302.5C 373.52,299.337 371.02,297.504 367.5,297C 364.854,296.503 362.187,296.336 359.5,296.5C 359.5,293.5 359.5,290.5 359.5,287.5 Z"/></g>
<g><path style="opacity:0.48" fill="#1371b8" d="M 237.5,287.5 C 237.5,307.833 237.5,328.167 237.5,348.5C 235.533,348.739 233.699,348.406 232,347.5C 231.333,327.833 231.333,308.167 232,288.5C 233.699,287.594 235.533,287.261 237.5,287.5 Z"/></g>
<g><path style="opacity:1" fill="#1272b9" d="M 288.5,287.5 C 288.5,307.833 288.5,328.167 288.5,348.5C 286.833,348.5 285.167,348.5 283.5,348.5C 283.5,328.167 283.5,307.833 283.5,287.5C 285.167,287.5 286.833,287.5 288.5,287.5 Z"/></g>
<g><path style="opacity:0.959" fill="#205ca8" d="M 30.5,286.5 C 30.5,290.167 30.5,293.833 30.5,297.5C 23.8834,302.569 20.5501,309.402 20.5,318C 20.7819,325.021 23.1153,331.188 27.5,336.5C 27.5,340.5 27.5,344.5 27.5,348.5C 23.9464,347.231 20.9464,345.231 18.5,342.5C 18.5,325.833 18.5,309.167 18.5,292.5C 21.9521,289.561 25.9521,287.561 30.5,286.5 Z"/></g>
<g><path style="opacity:0.936" fill="#196cb4" d="M 18.5,292.5 C 18.5,309.167 18.5,325.833 18.5,342.5C 17.5041,342.586 16.6708,342.252 16,341.5C 8.07679,329.395 6.41012,316.395 11,302.5C 12.7911,298.561 15.2911,295.228 18.5,292.5 Z"/></g>
<g><path style="opacity:0.886" fill="#234f9f" d="M 142.5,295.5 C 147.261,306.683 152.261,317.683 157.5,328.5C 157.5,333.5 157.5,338.5 157.5,343.5C 156.178,343.67 155.011,343.337 154,342.5C 149.547,333.263 145.38,323.93 141.5,314.5C 141.177,307.978 141.51,301.645 142.5,295.5 Z"/></g>
<g><path style="opacity:0.926" fill="#273b93" d="M 247.5,313.5 C 254.175,313.334 260.842,313.5 267.5,314C 268.833,316.667 268.833,319.333 267.5,322C 260.842,322.5 254.175,322.666 247.5,322.5C 247.5,319.5 247.5,316.5 247.5,313.5 Z"/></g>
<g><path style="opacity:0.908" fill="#2252a1" d="M 82.5,287.5 C 86.1667,287.5 89.8333,287.5 93.5,287.5C 93.5,290.5 93.5,293.5 93.5,296.5C 90.1667,296.5 86.8333,296.5 83.5,296.5C 83.5,303.167 83.5,309.833 83.5,316.5C 87.5,316.5 91.5,316.5 95.5,316.5C 95.5,319.833 95.5,323.167 95.5,326.5C 91.5,326.5 87.5,326.5 83.5,326.5C 83.824,333.354 83.4907,340.021 82.5,346.5C 82.5,326.833 82.5,307.167 82.5,287.5 Z"/></g>
<g><path style="opacity:0.875" fill="#273a92" d="M 27.5,336.5 C 37.7582,341.823 48.0916,341.823 58.5,336.5C 60.5224,338.531 62.1891,340.865 63.5,343.5C 60.9082,346.543 57.5748,348.376 53.5,349C 44.7799,351.086 36.1132,350.919 27.5,348.5C 27.5,344.5 27.5,340.5 27.5,336.5 Z"/></g>
<g><path style="opacity:0.965" fill="#273b92" d="M 247.5,339.5 C 256.839,339.334 266.173,339.5 275.5,340C 276.833,342.667 276.833,345.333 275.5,348C 266.173,348.5 256.839,348.666 247.5,348.5C 247.5,345.5 247.5,342.5 247.5,339.5 Z"/></g>
<g><path style="opacity:0.834" fill="#040706" d="M 53.5,355.5 C 55.1667,355.5 56.8333,355.5 58.5,355.5C 58.5,357.833 58.5,360.167 58.5,362.5C 69.1556,359.658 73.6556,363.658 72,374.5C 71.1667,376.667 69.6667,378.167 67.5,379C 62.7712,379.996 58.2712,379.496 54,377.5C 53.5003,370.174 53.3337,362.841 53.5,355.5 Z M 62.5,365.5 C 67.7318,367.25 68.7318,370.416 65.5,375C 63.1902,375.497 60.8568,375.663 58.5,375.5C 58.3367,373.143 58.5034,370.81 59,368.5C 59.985,367.186 61.1516,366.186 62.5,365.5 Z"/></g>
<g><path style="opacity:0.887" fill="#040706" d="M 113.5,355.5 C 115.167,355.5 116.833,355.5 118.5,355.5C 118.5,356.833 118.5,358.167 118.5,359.5C 116.833,359.5 115.167,359.5 113.5,359.5C 113.5,358.167 113.5,356.833 113.5,355.5 Z"/></g>
<g><path style="opacity:0.741" fill="#040706" d="M 252.5,355.5 C 254.5,355.5 256.5,355.5 258.5,355.5C 258.5,363.5 258.5,371.5 258.5,379.5C 256.533,379.739 254.699,379.406 253,378.5C 252.5,370.841 252.334,363.174 252.5,355.5 Z"/></g>
<g><path style="opacity:0.887" fill="#040706" d="M 298.5,355.5 C 300.167,355.5 301.833,355.5 303.5,355.5C 303.5,356.833 303.5,358.167 303.5,359.5C 301.833,359.5 300.167,359.5 298.5,359.5C 298.5,358.167 298.5,356.833 298.5,355.5 Z"/></g>
<g><path style="opacity:0.779" fill="#040706" d="M 284.5,356.5 C 286.167,356.5 287.833,356.5 289.5,356.5C 289.5,358.5 289.5,360.5 289.5,362.5C 291.167,362.5 292.833,362.5 294.5,362.5C 294.5,363.833 294.5,365.167 294.5,366.5C 292.833,366.5 291.167,366.5 289.5,366.5C 289.5,369.5 289.5,372.5 289.5,375.5C 292.671,373.855 295.004,374.522 296.5,377.5C 292.633,380.133 288.799,380.133 285,377.5C 284.246,372.12 282.746,367.12 280.5,362.5C 281.5,362.5 282.5,362.5 283.5,362.5C 283.833,360.5 284.167,358.5 284.5,356.5 Z"/></g>
<g><path style="opacity:0.776" fill="#040706" d="M 100.5,361.5 C 104.22,361.296 107.553,362.296 110.5,364.5C 109.855,365.646 109.022,366.646 108,367.5C 105.688,365.536 103.188,365.203 100.5,366.5C 103.559,368.586 106.725,370.586 110,372.5C 111.14,375.528 110.306,377.695 107.5,379C 103.833,379.667 100.167,379.667 96.5,379C 93.9357,377.519 93.9357,376.019 96.5,374.5C 99.4742,376.566 102.474,376.732 105.5,375C 101.617,373.381 98.117,371.215 95,368.5C 94.4054,367.101 94.5721,365.768 95.5,364.5C 97.1446,363.304 98.8113,362.304 100.5,361.5 Z"/></g>
<g><path style="opacity:0.811" fill="#040706" d="M 131.5,361.5 C 135.493,361.245 138.326,362.911 140,366.5C 140.667,370.5 140.667,374.5 140,378.5C 138.301,379.406 136.467,379.739 134.5,379.5C 134.826,375.116 134.492,370.783 133.5,366.5C 131.295,365.626 129.462,366.292 128,368.5C 127.501,372.152 127.335,375.818 127.5,379.5C 125.833,379.5 124.167,379.5 122.5,379.5C 122.5,373.833 122.5,368.167 122.5,362.5C 124.262,362.357 125.929,362.691 127.5,363.5C 129.026,363.006 130.359,362.339 131.5,361.5 Z"/></g>
<g><path style="opacity:0.753" fill="#040706" d="M 149.5,361.5 C 156.02,360.744 160.02,363.411 161.5,369.5C 161.392,370.442 161.059,371.275 160.5,372C 156.167,372.333 151.833,372.667 147.5,373C 150.678,377.002 154.345,377.502 158.5,374.5C 160.138,375.705 160.471,377.038 159.5,378.5C 155.558,379.6 151.558,379.767 147.5,379C 142.931,376.459 141.431,372.625 143,367.5C 144.436,364.558 146.603,362.558 149.5,361.5 Z M 149.5,365.5 C 152.346,365.03 154.679,365.863 156.5,368C 153.5,368.667 150.5,368.667 147.5,368C 148.381,367.292 149.047,366.458 149.5,365.5 Z"/></g>
<g><path style="opacity:0.771" fill="#040706" d="M 169.5,361.5 C 173.22,361.296 176.553,362.296 179.5,364.5C 179,365.5 178.5,366.5 178,367.5C 175.174,365.402 172.341,365.235 169.5,367C 172.649,368.496 175.816,369.996 179,371.5C 179.944,374.347 179.444,376.847 177.5,379C 173.5,379.667 169.5,379.667 165.5,379C 162.936,377.519 162.936,376.019 165.5,374.5C 167.5,375.167 169.5,375.833 171.5,376.5C 172.672,376.081 173.672,375.415 174.5,374.5C 171.066,373.303 167.9,371.636 165,369.5C 163.797,365.222 165.297,362.556 169.5,361.5 Z"/></g>
<g><path style="opacity:0.776" fill="#040706" d="M 186.5,361.5 C 190.315,361.282 193.648,362.282 196.5,364.5C 196,365.5 195.5,366.5 195,367.5C 192.174,365.402 189.341,365.235 186.5,367C 189.649,368.496 192.816,369.996 196,371.5C 196.944,374.347 196.444,376.847 194.5,379C 189.63,379.967 184.963,379.467 180.5,377.5C 180.919,376.328 181.585,375.328 182.5,374.5C 184.5,375.167 186.5,375.833 188.5,376.5C 189.672,376.081 190.672,375.415 191.5,374.5C 188.066,373.303 184.9,371.636 182,369.5C 180.797,365.222 182.297,362.556 186.5,361.5 Z"/></g>
<g><path style="opacity:0.776" fill="#040706" d="M 218.5,361.5 C 222.315,361.282 225.648,362.282 228.5,364.5C 228,365.5 227.5,366.5 227,367.5C 224.174,365.402 221.341,365.235 218.5,367C 221.649,368.496 224.816,369.996 228,371.5C 228.944,374.347 228.444,376.847 226.5,379C 221.63,379.967 216.963,379.467 212.5,377.5C 212.919,376.328 213.585,375.328 214.5,374.5C 216.5,375.167 218.5,375.833 220.5,376.5C 221.672,376.081 222.672,375.415 223.5,374.5C 220.066,373.303 216.9,371.636 214,369.5C 212.797,365.222 214.297,362.556 218.5,361.5 Z"/></g>
<g><path style="opacity:0.804" fill="#040706" d="M 237.5,361.5 C 249.646,361.813 252.98,367.313 247.5,378C 241.986,380.365 236.819,379.865 232,376.5C 228.838,369.514 230.671,364.514 237.5,361.5 Z M 239.5,365.5 C 244.856,367.08 246.189,370.247 243.5,375C 237.556,376.72 235.056,374.553 236,368.5C 237.145,367.364 238.312,366.364 239.5,365.5 Z"/></g>
<g><path style="opacity:0.804" fill="#040706" d="M 313.5,361.5 C 325.646,361.813 328.98,367.313 323.5,378C 317.986,380.365 312.819,379.865 308,376.5C 304.838,369.514 306.671,364.514 313.5,361.5 Z M 315.5,365.5 C 320.856,367.08 322.189,370.247 319.5,375C 313.556,376.72 311.056,374.553 312,368.5C 313.145,367.364 314.312,366.364 315.5,365.5 Z"/></g>
<g><path style="opacity:0.796" fill="#040706" d="M 337.5,361.5 C 340.747,361.415 343.581,362.415 346,364.5C 346.499,369.489 346.666,374.489 346.5,379.5C 344.833,379.5 343.167,379.5 341.5,379.5C 341.666,375.486 341.499,371.486 341,367.5C 339.112,365.078 337.112,365.078 335,367.5C 334.501,371.486 334.334,375.486 334.5,379.5C 332.533,379.739 330.699,379.406 329,378.5C 328.501,373.177 328.334,367.844 328.5,362.5C 330.467,362.261 332.301,362.594 334,363.5C 335.302,362.915 336.469,362.249 337.5,361.5 Z"/></g>
<g><path style="opacity:0.84" fill="#040706" d="M 74.5,362.5 C 76.1667,362.5 77.8333,362.5 79.5,362.5C 79.3345,366.514 79.5012,370.514 80,374.5C 82.2672,375.935 84.2672,375.602 86,373.5C 86.4986,369.848 86.6653,366.182 86.5,362.5C 88.1667,362.5 89.8333,362.5 91.5,362.5C 91.5,368.167 91.5,373.833 91.5,379.5C 86.5886,379.2 81.5886,379.034 76.5,379C 76,378.5 75.5,378 75,377.5C 74.5007,372.511 74.3341,367.511 74.5,362.5 Z"/></g>
<g><path style="opacity:0.873" fill="#040706" d="M 113.5,362.5 C 115.167,362.5 116.833,362.5 118.5,362.5C 118.5,368.167 118.5,373.833 118.5,379.5C 116.833,379.5 115.167,379.5 113.5,379.5C 113.5,373.833 113.5,368.167 113.5,362.5 Z"/></g>
<g><path style="opacity:0.849" fill="#040706" d="M 261.5,362.5 C 263.167,362.5 264.833,362.5 266.5,362.5C 266.334,366.514 266.501,370.514 267,374.5C 269,375.833 271,375.833 273,374.5C 273.499,370.514 273.666,366.514 273.5,362.5C 275.167,362.5 276.833,362.5 278.5,362.5C 278.5,368.167 278.5,373.833 278.5,379.5C 273.589,379.2 268.589,379.034 263.5,379C 263,378.5 262.5,378 262,377.5C 261.501,372.511 261.334,367.511 261.5,362.5 Z"/></g>
<g><path style="opacity:0.873" fill="#040706" d="M 298.5,362.5 C 300.167,362.5 301.833,362.5 303.5,362.5C 303.5,368.167 303.5,373.833 303.5,379.5C 301.833,379.5 300.167,379.5 298.5,379.5C 298.5,373.833 298.5,368.167 298.5,362.5 Z"/></g>
</svg>
